<svg width="1069" height="1065" xmlns="http://www.w3.org/2000/svg"><defs><path id="O" d="M784.889 531.744h147.785v100.409H784.889z"/><path id="N" d="M795.495 441.942h131.522v165.463H795.495z"/><path id="M" d="M675.994 404.465h241.123v99.702H675.994z"/><path id="L" d="M756.604 307.591h130.815v142.128H756.604z"/><path id="K" d="M750.24 335.876h176.07v115.258H750.24z"/><path id="J" d="M838.629 321.734h132.229V437.7H838.629z"/><path id="I" d="M773.575 254.558h152.028v106.773H773.575z"/><path id="H" d="M672.459 124.451h74.953v137.886h-74.953z"/><path id="G" d="M628.618 101.116h58.69v111.016h-58.69z"/><path id="F" d="M545.886 89.095h84.146v124.451h-84.146z"/><path id="E" d="M512.652 101.823h105.359V210.01H512.652z"/><path id="D" d="M446.891 107.48h121.622v115.966H446.891z"/><path id="C" d="M337.997 284.257h89.095v130.815h-89.095z"/><path id="B" d="M308.299 147.078h80.61v113.137h-80.61z"/><path id="A" d="M302.642 236.881h94.752v141.421h-94.752z"/><path id="z" d="M236.881 285.671h93.338v147.078h-93.338z"/><path id="y" d="M179.605 320.319h123.744v120.915H179.605z"/><path id="x" d="M169.706 345.068h108.187v110.309H169.706z"/><path id="w" d="M120.915 377.595h102.53v119.501h-102.53z"/><path id="v" d="M53.033 521.845h108.772v164.246H53.033z"/><path id="u" d="M456.159 729.478h162.106v92.363H456.159z"/><path id="n" d="M808.646 767.177h86.708v65.973h-86.708z"/><path id="m" d="M725.708 823.726h173.416v111.212H725.708z"/><path id="a" d="M199.805 757.752h260.124v188.496H199.805z"/><path id="b" d="M199.805 757.752h260.124v188.496H199.805z"/><path id="c" d="M199.805 757.752h260.124v188.496H199.805z"/><path id="d" d="M199.805 757.752h260.124v188.496H199.805z"/><path id="e" d="M199.805 757.752h260.124v188.496H199.805z"/><path id="f" d="M199.805 757.752h260.124v188.496H199.805z"/><path id="g" d="M199.805 757.752h260.124v188.496H199.805z"/><path id="h" d="M199.805 757.752h260.124v188.496H199.805z"/><path id="i" d="M199.805 757.752h260.124v188.496H199.805z"/><path id="j" d="M199.805 757.752h260.124v188.496H199.805z"/><path id="k" d="M199.805 757.752h260.124v188.496H199.805z"/><path id="l" d="M199.805 757.752h260.124v188.496H199.805z"/><path id="o" d="M725.708 823.726h173.416v111.212H725.708z"/><path id="p" d="M725.708 823.726h173.416v111.212H725.708z"/><path id="q" d="M725.708 823.726h173.416v111.212H725.708z"/><path id="r" d="M725.708 823.726h173.416v111.212H725.708z"/><path id="s" d="M725.708 823.726h173.416v111.212H725.708z"/><path id="t" d="M725.708 823.726h173.416v111.212H725.708z"/></defs><g style="display:inline;stroke:#000"><path style="display:inline;opacity:1;fill:#2180ff;fill-opacity:1;stroke:#000;stroke-width:8.88;stroke-opacity:1" d="m480.715 5.861-9.59 77.686a455.23 455.23 0 0 0-55.697 11.623L379.354 25.8 278.998 66.587l20.943 77.469a453.554 453.554 0 0 0-39.79 27.14c-6.13-4.967-42.063-33.584-64.725-51.34l-74.914 78.249 50.593 61.908a451.292 451.292 0 0 0-30.261 45.33c-10.955-3.33-77.073-22.535-77.073-22.535L23.814 383.494l69.756 38.088a449.656 449.656 0 0 0-10.498 54.674c-16.047 1.255-77.176 6.613-77.176 6.613l-.222 108.387 79.555 10.223a449.715 449.715 0 0 0 9.689 44.34c-9.527 4.987-71.164 38.216-71.164 38.216l42.142 99.793 78.07-22.246a451.387 451.387 0 0 0 31.128 44.94c-2.472 3.024-53.051 66.302-53.051 66.302l77.945 75.227 66.108-53.584a453.696 453.696 0 0 0 42.263 27.285c-.737 2.435-23.97 82.223-23.97 82.223l100.742 39.822 41.043-75.41a455.235 455.235 0 0 0 44.525 9.265c.188 2.12 9.326 83.637 9.326 83.637l108.589-.382s7.068-54.662 10.11-83.777a455.213 455.213 0 0 0 43.932-9.513l.084.15.117.213 41.204 75.705 100.742-39.824-24.783-84.032c-4.738 3.765 33.951-21.594 40.224-26.164l66.96 54.272 77.944-75.227s-53.355-66.682-54.005-67.478a451.389 451.389 0 0 0 29.79-42.985l82.362 23.467 42.14-99.793s-72.016-38.674-75.054-40.263a449.714 449.714 0 0 0 9.115-41.723l83.582-10.668.084-108.148s-68.45-6.315-80.3-7.239a449.629 449.629 0 0 0-9.502-53.176l72.017-39.322-39.957-100.69s-70.006 20.385-78.623 23.005a451.22 451.22 0 0 0-29.29-45.09l51.173-62.617-74.914-78.248s-58.28 46.115-64.605 51.242a453.536 453.536 0 0 0-39.83-27.334l20.862-77.178-100.355-40.785S661.56 81.67 654.36 95.88a455.222 455.222 0 0 0-56.484-11.982c-2.233-19.984-8.836-77.949-8.836-77.949zm50.37 182.94c188.534 0 341.37 153.668 341.37 343.228S719.62 875.258 531.085 875.258c-188.532 0-341.368-153.669-341.368-343.229 0-189.56 152.836-343.228 341.369-343.228Z"/><ellipse style="display:inline;opacity:1;fill:#ff0;fill-opacity:1;stroke:#000;stroke-width:8.88;stroke-dasharray:none;stroke-opacity:1" cx="531.086" cy="532.029" rx="341.369" ry="343.229"/><ellipse style="display:inline;opacity:1;fill:none;fill-opacity:1;stroke:#000;stroke-width:5.004;stroke-dasharray:none;stroke-opacity:1" cx="530.57" cy="530.615" rx="323.297" ry="322.777"/></g><g style="display:inline;fill:none;fill-opacity:1;stroke:#c41f01;stroke-opacity:1"><circle style="display:inline;fill:#c41f01;fill-opacity:1;stroke:none;stroke-width:2.25597;stroke-linecap:round;stroke-linejoin:round" cx="312.19" cy="571.132" r="12.374" stroke="none"/><circle style="fill:#c41f01;fill-opacity:1;stroke:none;stroke-width:2.25597;stroke-linecap:round;stroke-linejoin:round" cx="350.002" cy="343.959" r="12.374" stroke="none"/><circle style="fill:#c41f01;fill-opacity:1;stroke:none;stroke-width:2.25597;stroke-linecap:round;stroke-linejoin:round" cx="694.398" cy="343.67" r="12.374" stroke="none"/><circle style="fill:#c41f01;fill-opacity:1;stroke:none;stroke-width:2.25597;stroke-linecap:round;stroke-linejoin:round" cx="721.248" cy="549.207" r="12.374" stroke="none"/><circle style="fill:#c41f01;fill-opacity:1;stroke:none;stroke-width:2.25597;stroke-linecap:round;stroke-linejoin:round" cx="714.31" cy="639.214" r="12.374" stroke="none"/><circle style="display:inline;fill:#c41f01;fill-opacity:1;stroke:none;stroke-width:2.25597;stroke-linecap:round;stroke-linejoin:round;stroke-opacity:1" cx="347.589" cy="639.257" r="12.374" stroke="none"/><path style="display:inline;fill:none;stroke:#c41f01;stroke-width:6.92031;stroke-linecap:round;stroke-linejoin:round;stroke-dasharray:none;stroke-opacity:1" d="M304.65 582.376c-7.686 11.953-14.512 28.158-7.085 42.037 7.774 14.531 31.227 14.926 47.704 14.642 16.474-.284 44.328-7.286 71.321-17.003 26.098-9.395 70.248-27.531 92.576-38.259 56.98-27.376 93.9-53.859 144.531-91.158 31.32-23.072 57.418-45.962 81.24-76.99 11.675-15.204 26.458-33.417 21.727-54.789-3.45-15.586-26.904-18.75-44.398-17.948-26.764 1.226-49.394 6.96-73.683 14.642-50.116 15.85-98.143 40.434-145.004 65.18-26.933 14.224-50.478 32.573-75.572 50.54-26.979 19.316-54.021 39.815-76.989 63.763-13.515 14.092-25.608 28.608-36.369 45.343z"/><path style="display:inline;fill:none;stroke:#c41f01;stroke-width:6.92031;stroke-linecap:round;stroke-linejoin:round;stroke-dasharray:none;stroke-opacity:1" d="M747.308 582.376c7.686 11.953 14.511 28.158 7.085 42.037-7.775 14.531-31.227 14.926-47.705 14.642-16.473-.284-44.327-7.286-71.32-17.003-26.098-9.395-70.249-27.531-92.576-38.259-56.98-27.376-93.9-53.859-144.532-91.158-31.318-23.072-57.417-45.962-81.24-76.99-11.674-15.204-26.457-33.417-21.726-54.789 3.45-15.586 26.904-18.75 44.398-17.948 26.764 1.226 49.394 6.96 73.683 14.642 50.116 15.85 98.143 40.434 145.003 65.18 26.934 14.224 50.479 32.573 75.572 50.54 26.98 19.316 54.022 39.815 76.99 63.763 13.514 14.092 25.607 28.608 36.368 45.343z"/></g><g style="display:inline;fill:#000"><text xml:space="preserve" style="font-style:normal;font-variant:normal;font-weight:700;font-stretch:normal;font-size:64px;font-family:Arial;-inkscape-font-specification:'Arial, Bold';font-variant-ligatures:normal;font-variant-caps:normal;font-variant-numeric:normal;font-variant-east-asian:normal;white-space:pre;shape-inside:url(#a);display:inline;opacity:1;fill:#000;fill-opacity:1;stroke:none;stroke-width:.219;stroke-dasharray:none;stroke-opacity:1" transform="rotate(52.089 244.597 761.964)"><tspan x="199.805" y="815.4">B</tspan></text><text xml:space="preserve" style="font-style:normal;font-variant:normal;font-weight:700;font-stretch:normal;font-size:64px;font-family:Arial;-inkscape-font-specification:'Arial, Bold';font-variant-ligatures:normal;font-variant-caps:normal;font-variant-numeric:normal;font-variant-east-asian:normal;white-space:pre;shape-inside:url(#b);display:inline;opacity:1;fill:#000;fill-opacity:1;stroke:none;stroke-width:.219;stroke-dasharray:none;stroke-opacity:1" transform="rotate(47.809 220.645 810.91)"><tspan x="199.805" y="815.4">U</tspan></text><text xml:space="preserve" style="font-style:normal;font-variant:normal;font-weight:700;font-stretch:normal;font-size:64px;font-family:Arial;-inkscape-font-specification:'Arial, Bold';font-variant-ligatures:normal;font-variant-caps:normal;font-variant-numeric:normal;font-variant-east-asian:normal;white-space:pre;shape-inside:url(#c);display:inline;opacity:1;fill:#000;fill-opacity:1;stroke:none;stroke-width:.219;stroke-dasharray:none;stroke-opacity:1" transform="rotate(42.519 193.304 874.115)"><tspan x="199.805" y="815.4">E</tspan></text><text xml:space="preserve" style="font-style:normal;font-variant:normal;font-weight:700;font-stretch:normal;font-size:64px;font-family:Arial;-inkscape-font-specification:'Arial, Bold';font-variant-ligatures:normal;font-variant-caps:normal;font-variant-numeric:normal;font-variant-east-asian:normal;white-space:pre;shape-inside:url(#d);display:inline;opacity:1;fill:#000;fill-opacity:1;stroke:none;stroke-width:.219;stroke-dasharray:none;stroke-opacity:1" transform="rotate(35.277 154.876 953.103)"><tspan x="199.805" y="815.4">N</tspan></text><text xml:space="preserve" style="font-style:normal;font-variant:normal;font-weight:700;font-stretch:normal;font-size:64px;font-family:Arial;-inkscape-font-specification:'Arial, Bold';font-variant-ligatures:normal;font-variant-caps:normal;font-variant-numeric:normal;font-variant-east-asian:normal;white-space:pre;shape-inside:url(#e);display:inline;opacity:1;fill:#000;fill-opacity:1;stroke:none;stroke-width:.219;stroke-dasharray:none;stroke-opacity:1" transform="rotate(27.45 90.492 1087.128)"><tspan x="199.805" y="815.4">A</tspan></text><text xml:space="preserve" style="font-style:normal;font-variant:normal;font-weight:700;font-stretch:normal;font-size:64px;font-family:Arial;-inkscape-font-specification:'Arial, Bold';font-variant-ligatures:normal;font-variant-caps:normal;font-variant-numeric:normal;font-variant-east-asian:normal;white-space:pre;shape-inside:url(#f);display:inline;opacity:1;fill:#000;fill-opacity:1;stroke:none;stroke-width:.219;stroke-dasharray:none;stroke-opacity:1" transform="rotate(20.524 -3.887 1280.84)"><tspan x="199.805" y="815.4">V</tspan></text><text xml:space="preserve" style="font-style:normal;font-variant:normal;font-weight:700;font-stretch:normal;font-size:64px;font-family:Arial;-inkscape-font-specification:'Arial, Bold';font-variant-ligatures:normal;font-variant-caps:normal;font-variant-numeric:normal;font-variant-east-asian:normal;white-space:pre;shape-inside:url(#g);display:inline;opacity:1;fill:#000;fill-opacity:1;stroke:none;stroke-width:.219;stroke-dasharray:none;stroke-opacity:1" transform="rotate(20.524 -21.602 1407.705)"><tspan x="199.805" y="815.4">I</tspan></text><text xml:space="preserve" style="font-style:normal;font-variant:normal;font-weight:700;font-stretch:normal;font-size:64px;font-family:Arial;-inkscape-font-specification:'Arial, Bold';font-variant-ligatures:normal;font-variant-caps:normal;font-variant-numeric:normal;font-variant-east-asian:normal;white-space:pre;shape-inside:url(#h);display:inline;opacity:1;fill:#000;fill-opacity:1;stroke:none;stroke-width:.219;stroke-dasharray:none;stroke-opacity:1" transform="rotate(12.743 -246.316 1816.822)"><tspan x="199.805" y="815.4">S</tspan></text><text xml:space="preserve" style="font-style:normal;font-variant:normal;font-weight:700;font-stretch:normal;font-size:64px;font-family:Arial;-inkscape-font-specification:'Arial, Bold';font-variant-ligatures:normal;font-variant-caps:normal;font-variant-numeric:normal;font-variant-east-asian:normal;white-space:pre;shape-inside:url(#i);display:inline;opacity:1;fill:#000;fill-opacity:1;stroke:none;stroke-width:.219;stroke-dasharray:none;stroke-opacity:1" transform="rotate(7.12 -757.037 2928.708)"><tspan x="199.805" y="815.4">T</tspan></text><text xml:space="preserve" style="font-style:normal;font-variant:normal;font-weight:700;font-stretch:normal;font-size:64px;font-family:Arial;-inkscape-font-specification:'Arial, Bold';font-variant-ligatures:normal;font-variant-caps:normal;font-variant-numeric:normal;font-variant-east-asian:normal;white-space:pre;shape-inside:url(#j);display:inline;opacity:1;fill:#000;fill-opacity:1;stroke:none;stroke-width:.219;stroke-dasharray:none;stroke-opacity:1" transform="rotate(2.285 -3171.473 8198.162)"><tspan x="199.805" y="815.4">A</tspan></text><text xml:space="preserve" style="font-style:normal;font-variant:normal;font-weight:700;font-stretch:normal;font-size:64px;font-family:Arial;-inkscape-font-specification:'Arial, Bold';font-variant-ligatures:normal;font-variant-caps:normal;font-variant-numeric:normal;font-variant-east-asian:normal;white-space:pre;shape-inside:url(#k);display:inline;opacity:1;fill:#000;fill-opacity:1;stroke:none;stroke-width:.219;stroke-dasharray:none;stroke-opacity:1" transform="rotate(2.285 -3218.094 9416.505)"><tspan x="199.805" y="815.4">,</tspan></text><text xml:space="preserve" style="font-style:normal;font-variant:normal;font-weight:700;font-stretch:normal;font-size:64px;font-family:Arial;-inkscape-font-specification:'Arial, Bold';font-variant-ligatures:normal;font-variant-caps:normal;font-variant-numeric:normal;font-variant-east-asian:normal;white-space:pre;shape-inside:url(#l);display:inline;opacity:1;fill:#000;fill-opacity:1;stroke:none;stroke-width:.219;stroke-dasharray:none;stroke-opacity:1" transform="rotate(-4.502 2135.337 -3909.829)"><tspan x="199.805" y="815.4">G</tspan></text><text xml:space="preserve" style="font-style:normal;font-variant:normal;font-weight:700;font-stretch:normal;font-size:64px;font-family:Arial;-inkscape-font-specification:'Arial, Bold';font-variant-ligatures:normal;font-variant-caps:normal;font-variant-numeric:normal;font-variant-east-asian:normal;white-space:pre;shape-inside:url(#m);display:inline;opacity:1;fill:#000;fill-opacity:1;stroke:none;stroke-width:.219;stroke-dasharray:none;stroke-opacity:1" transform="rotate(-14.1 935.583 1301.733)"><tspan x="725.707" y="881.375">U</tspan></text><text xml:space="preserve" style="font-style:normal;font-variant:normal;font-weight:700;font-stretch:normal;font-size:64px;font-family:Arial;-inkscape-font-specification:'Arial, Bold';font-variant-ligatures:normal;font-variant-caps:normal;font-variant-numeric:normal;font-variant-east-asian:normal;white-space:pre;shape-inside:url(#o);display:inline;opacity:1;fill:#000;fill-opacity:1;stroke:none;stroke-width:.219;stroke-dasharray:none;stroke-opacity:1" transform="rotate(-22.29 831.309 1030.32)"><tspan x="725.707" y="881.375">I</tspan></text><text xml:space="preserve" style="font-style:normal;font-variant:normal;font-weight:700;font-stretch:normal;font-size:64px;font-family:Arial;-inkscape-font-specification:'Arial, Bold';font-variant-ligatures:normal;font-variant-caps:normal;font-variant-numeric:normal;font-variant-east-asian:normal;white-space:pre;shape-inside:url(#p);display:inline;opacity:1;fill:#000;fill-opacity:1;stroke:none;stroke-width:.219;stroke-dasharray:none;stroke-opacity:1" transform="rotate(-24.899 810.135 971.958)"><tspan x="725.707" y="881.375">M</tspan></text><text xml:space="preserve" style="font-style:normal;font-variant:normal;font-weight:700;font-stretch:normal;font-size:64px;font-family:Arial;-inkscape-font-specification:'Arial, Bold';font-variant-ligatures:normal;font-variant-caps:normal;font-variant-numeric:normal;font-variant-east-asian:normal;white-space:pre;shape-inside:url(#q);display:inline;opacity:1;fill:#000;fill-opacity:1;stroke:none;stroke-width:.219;stroke-dasharray:none;stroke-opacity:1" transform="rotate(-34.306 766.55 857.496)"><tspan x="725.707" y="881.375">A</tspan></text><text xml:space="preserve" style="font-style:normal;font-variant:normal;font-weight:700;font-stretch:normal;font-size:64px;font-family:Arial;-inkscape-font-specification:'Arial, Bold';font-variant-ligatures:normal;font-variant-caps:normal;font-variant-numeric:normal;font-variant-east-asian:normal;white-space:pre;shape-inside:url(#r);display:inline;opacity:1;fill:#000;fill-opacity:1;stroke:none;stroke-width:.219;stroke-dasharray:none;stroke-opacity:1" transform="rotate(-40.27 745.846 790.971)"><tspan x="725.707" y="881.375">R</tspan></text><text xml:space="preserve" style="font-style:normal;font-variant:normal;font-weight:700;font-stretch:normal;font-size:64px;font-family:Arial;-inkscape-font-specification:'Arial, Bold';font-variant-ligatures:normal;font-variant-caps:normal;font-variant-numeric:normal;font-variant-east-asian:normal;white-space:pre;shape-inside:url(#s);display:inline;opacity:1;fill:#000;fill-opacity:1;stroke:none;stroke-width:.219;stroke-dasharray:none;stroke-opacity:1" transform="rotate(-47.474 730.13 747.998)"><tspan x="725.707" y="881.375">A</tspan></text><text xml:space="preserve" style="font-style:normal;font-variant:normal;font-weight:700;font-stretch:normal;font-size:64px;font-family:Arial;-inkscape-font-specification:'Arial, Bold';font-variant-ligatures:normal;font-variant-caps:normal;font-variant-numeric:normal;font-variant-east-asian:normal;white-space:pre;shape-inside:url(#t);display:inline;opacity:1;fill:#000;fill-opacity:1;stroke:none;stroke-width:.219;stroke-dasharray:none;stroke-opacity:1" transform="rotate(-53.048 717.279 710.559)"><tspan x="725.707" y="881.375">S</tspan></text><text xml:space="preserve" style="font-style:normal;font-variant:normal;font-weight:700;font-stretch:normal;font-size:53.3333px;font-family:Arial;-inkscape-font-specification:'Arial, Bold';font-variant-ligatures:normal;font-variant-caps:normal;font-variant-numeric:normal;font-variant-east-asian:normal;white-space:pre;shape-inside:url(#u);display:inline;opacity:1;fill:#000;fill-opacity:1;stroke:none;stroke-width:.219;stroke-dasharray:none;stroke-opacity:1" transform="matrix(1.32244 0 0 1 -145.551 -12.757)"><tspan x="456.16" y="777.519"><tspan style="font-family:'Times New Roman';-inkscape-font-specification:'Times New Roman, Bold'">1968</tspan></tspan></text><text xml:space="preserve" style="font-weight:700;font-size:85.3333px;font-family:'Times New Roman';-inkscape-font-specification:'Times New Roman, Bold';white-space:pre;shape-inside:url(#v);display:inline;opacity:1;fill:#000;fill-opacity:1;stroke:none;stroke-width:2.38488;stroke-linecap:round;stroke-linejoin:round;stroke-dasharray:none;stroke-opacity:1" transform="rotate(-92.023 102.927 533.942)"><tspan x="53.033" y="598.71"><tspan style="font-family:Arial;-inkscape-font-specification:'Arial Bold'">G</tspan></tspan></text><text xml:space="preserve" style="font-style:normal;font-variant:normal;font-weight:700;font-stretch:normal;font-size:85.3333px;font-family:Arial;-inkscape-font-specification:'Arial Bold';white-space:pre;shape-inside:url(#w);display:inline;opacity:1;fill:#000;fill-opacity:1;stroke:none;stroke-width:2.38488;stroke-linecap:round;stroke-linejoin:round;stroke-dasharray:none;stroke-opacity:1" transform="rotate(-82.097 176.95 457.4)"><tspan x="120.916" y="454.46">U</tspan></text><text xml:space="preserve" style="font-style:normal;font-variant:normal;font-weight:700;font-stretch:normal;font-size:85.3333px;font-family:Arial;-inkscape-font-specification:'Arial Bold';white-space:pre;shape-inside:url(#x);display:inline;opacity:1;fill:#000;fill-opacity:1;stroke:none;stroke-width:2.38488;stroke-linecap:round;stroke-linejoin:round;stroke-dasharray:none;stroke-opacity:1" transform="rotate(-73.293 192.995 430.797)"><tspan x="169.705" y="421.933">I</tspan></text><text xml:space="preserve" style="font-style:normal;font-variant:normal;font-weight:700;font-stretch:normal;font-size:85.3333px;font-family:Arial;-inkscape-font-specification:'Arial Bold';white-space:pre;shape-inside:url(#y);display:inline;opacity:1;fill:#000;fill-opacity:1;stroke:none;stroke-width:2.38488;stroke-linecap:round;stroke-linejoin:round;stroke-dasharray:none;stroke-opacity:1" transform="rotate(-64.731 201.092 408.56)"><tspan x="179.605" y="397.185">M</tspan></text><text xml:space="preserve" style="font-style:normal;font-variant:normal;font-weight:700;font-stretch:normal;font-size:85.3333px;font-family:Arial;-inkscape-font-specification:'Arial Bold';white-space:pre;shape-inside:url(#z);display:inline;opacity:1;fill:#000;fill-opacity:1;stroke:none;stroke-width:2.38488;stroke-linecap:round;stroke-linejoin:round;stroke-dasharray:none;stroke-opacity:1" transform="rotate(-56.59 219.338 380.597)"><tspan x="236.881" y="362.536">A</tspan></text><text xml:space="preserve" style="font-style:normal;font-variant:normal;font-weight:700;font-stretch:normal;font-size:85.3333px;font-family:Arial;-inkscape-font-specification:'Arial Bold';white-space:pre;shape-inside:url(#A);display:inline;opacity:1;fill:#000;fill-opacity:1;stroke:none;stroke-width:2.38488;stroke-linecap:round;stroke-linejoin:round;stroke-dasharray:none;stroke-opacity:1" transform="rotate(-46.452 263.912 370.164)"><tspan x="302.643" y="313.745">R</tspan></text><text xml:space="preserve" style="font-style:normal;font-variant:normal;font-weight:700;font-stretch:normal;font-size:85.3333px;font-family:Arial;-inkscape-font-specification:'Arial Bold';white-space:pre;shape-inside:url(#B);display:inline;opacity:1;fill:#000;fill-opacity:1;stroke:none;stroke-width:2.38488;stroke-linecap:round;stroke-linejoin:round;stroke-dasharray:none;stroke-opacity:1" transform="rotate(-35.204 352.878 261.603)"><tspan x="308.299" y="223.942">A</tspan></text><text xml:space="preserve" style="font-style:normal;font-variant:normal;font-weight:700;font-stretch:normal;font-size:85.3333px;font-family:Arial;-inkscape-font-specification:'Arial Bold';white-space:pre;shape-inside:url(#C);display:inline;opacity:1;fill:#000;fill-opacity:1;stroke:none;stroke-width:2.38488;stroke-linecap:round;stroke-linejoin:round;stroke-dasharray:none;stroke-opacity:1" transform="rotate(-28.467 64.107 268.879)"><tspan x="337.996" y="361.122">S</tspan></text><text xml:space="preserve" style="font-style:normal;font-variant:normal;font-weight:700;font-stretch:normal;font-size:85.3333px;font-family:Arial;-inkscape-font-specification:'Arial Bold';white-space:pre;shape-inside:url(#D);display:inline;opacity:1;fill:#000;fill-opacity:1;stroke:none;stroke-width:2.38488;stroke-linecap:round;stroke-linejoin:round;stroke-dasharray:none;stroke-opacity:1" transform="rotate(-14.021 442.354 275.332)"><tspan x="446.891" y="184.345">S</tspan></text><text xml:space="preserve" style="font-style:normal;font-variant:normal;font-weight:700;font-stretch:normal;font-size:85.3333px;font-family:Arial;-inkscape-font-specification:'Arial Bold';white-space:pre;shape-inside:url(#E);display:inline;opacity:1;fill:#000;fill-opacity:1;stroke:none;stroke-width:2.38488;stroke-linecap:round;stroke-linejoin:round;stroke-dasharray:none;stroke-opacity:1" transform="rotate(-3.951 389.595 604.805)"><tspan x="512.652" y="178.689">T</tspan></text><text xml:space="preserve" style="font-style:normal;font-variant:normal;font-weight:700;font-stretch:normal;font-size:85.3333px;font-family:Arial;-inkscape-font-specification:'Arial Bold';white-space:pre;shape-inside:url(#F);display:inline;opacity:1;fill:#000;fill-opacity:1;stroke:none;stroke-width:2.38488;stroke-linecap:round;stroke-linejoin:round;stroke-dasharray:none;stroke-opacity:1" transform="rotate(3.796 505.808 -65.148)"><tspan x="545.887" y="165.96">A</tspan></text><text xml:space="preserve" style="font-style:normal;font-variant:normal;font-weight:700;font-stretch:normal;font-size:85.3333px;font-family:Arial;-inkscape-font-specification:'Arial Bold';white-space:pre;shape-inside:url(#G);display:inline;opacity:1;fill:#000;fill-opacity:1;stroke:none;stroke-width:2.38488;stroke-linecap:round;stroke-linejoin:round;stroke-dasharray:none;stroke-opacity:1" transform="rotate(13.477 637.75 3.813)"><tspan x="628.617" y="177.982">T</tspan></text><text xml:space="preserve" style="font-style:normal;font-variant:normal;font-weight:700;font-stretch:normal;font-size:85.3333px;font-family:Arial;-inkscape-font-specification:'Arial Bold';white-space:pre;shape-inside:url(#H);display:inline;opacity:1;fill:#000;fill-opacity:1;stroke:none;stroke-width:2.38488;stroke-linecap:round;stroke-linejoin:round;stroke-dasharray:none;stroke-opacity:1" transform="rotate(22.203 703.196 110.64)"><tspan x="672.459" y="201.316">E</tspan></text><text xml:space="preserve" style="font-style:normal;font-variant:normal;font-weight:700;font-stretch:normal;font-size:85.3333px;font-family:Arial;-inkscape-font-specification:'Arial Bold';white-space:pre;shape-inside:url(#I);display:inline;opacity:1;fill:#000;fill-opacity:1;stroke:none;stroke-width:2.38488;stroke-linecap:round;stroke-linejoin:round;stroke-dasharray:none;stroke-opacity:1" transform="rotate(32.023 939.122 180.826)"><tspan x="773.574" y="331.423">C</tspan></text><text xml:space="preserve" style="font-style:normal;font-variant:normal;font-weight:700;font-stretch:normal;font-size:85.3333px;font-family:Arial;-inkscape-font-specification:'Arial Bold';white-space:pre;shape-inside:url(#J);display:inline;opacity:1;fill:#000;fill-opacity:1;stroke:none;stroke-width:2.38488;stroke-linecap:round;stroke-linejoin:round;stroke-dasharray:none;stroke-opacity:1" transform="rotate(43.603 982.269 243.961)"><tspan x="838.629" y="398.599">O</tspan></text><text xml:space="preserve" style="font-style:normal;font-variant:normal;font-weight:700;font-stretch:normal;font-size:85.3333px;font-family:Arial;-inkscape-font-specification:'Arial Bold';white-space:pre;shape-inside:url(#K);display:inline;opacity:1;fill:#000;fill-opacity:1;stroke:none;stroke-width:2.38488;stroke-linecap:round;stroke-linejoin:round;stroke-dasharray:none;stroke-opacity:1" transform="rotate(53.914 889.483 423.89)"><tspan x="750.24" y="412.739">L</tspan></text><text xml:space="preserve" style="font-style:normal;font-variant:normal;font-weight:700;font-stretch:normal;font-size:85.3333px;font-family:Arial;-inkscape-font-specification:'Arial Bold';white-space:pre;shape-inside:url(#L);display:inline;opacity:1;fill:#000;fill-opacity:1;stroke:none;stroke-width:2.38488;stroke-linecap:round;stroke-linejoin:round;stroke-dasharray:none;stroke-opacity:1" transform="rotate(63.22 830.873 442.147)"><tspan x="756.604" y="384.456">L</tspan></text><text xml:space="preserve" style="font-style:normal;font-variant:normal;font-weight:700;font-stretch:normal;font-size:85.3333px;font-family:Arial;-inkscape-font-specification:'Arial Bold';white-space:pre;shape-inside:url(#M);display:inline;opacity:1;fill:#000;fill-opacity:1;stroke:none;stroke-width:2.38488;stroke-linecap:round;stroke-linejoin:round;stroke-dasharray:none;stroke-opacity:1" transform="rotate(74.718 828.937 571.278)"><tspan x="675.994" y="481.329">E</tspan></text><text xml:space="preserve" style="font-style:normal;font-variant:normal;font-weight:700;font-stretch:normal;font-size:85.3333px;font-family:Arial;-inkscape-font-specification:'Arial Bold';white-space:pre;shape-inside:url(#N);display:inline;opacity:1;fill:#000;fill-opacity:1;stroke:none;stroke-width:2.38488;stroke-linecap:round;stroke-linejoin:round;stroke-dasharray:none;stroke-opacity:1" transform="rotate(79.338 878.211 546.037)"><tspan x="795.496" y="518.806">G</tspan></text><text xml:space="preserve" style="font-style:normal;font-variant:normal;font-weight:700;font-stretch:normal;font-size:85.3333px;font-family:Arial;-inkscape-font-specification:'Arial Bold';white-space:pre;shape-inside:url(#O);display:inline;opacity:1;fill:#000;fill-opacity:1;stroke:none;stroke-width:2.38488;stroke-linecap:round;stroke-linejoin:round;stroke-dasharray:none;stroke-opacity:1" transform="rotate(93.7 881.545 621.151)"><tspan x="784.889" y="608.608">E</tspan></text></g><g style="display:inline;fill:#804040;fill-opacity:1"><path style="display:inline;fill:#201f00;fill-opacity:1;stroke:none;stroke-width:0;stroke-dasharray:none" d="m330.517 765.897 106.226-.234 12.371-46.048 162.773-.895 6.967 46.572h114.394l-2.828-83.88H691.78l-59.986-256.297L653.69 258.41l-62.641-.114-6.655 35.814-24.228-.333-9.034-36.147-72.961.057-7.264 35.976-25.723-.333-4.655-35.367-58.824.666 32.044 164.544-49.342 258.286-36.21 1.43z"/><g style="display:inline;fill:#804040;fill-opacity:1"><path style="display:inline;opacity:1;fill:#804040;fill-opacity:1;stroke:none;stroke-width:5.004;stroke-dasharray:none;stroke-opacity:1" d="M336.76 728.85h27.577v28.108H336.76zM372.999 729.027v27.93h58.69l7.248-28.46z"/><path style="opacity:1;fill:#804040;fill-opacity:1;stroke:none;stroke-width:5.01358;stroke-dasharray:none;stroke-opacity:1" d="M335.5 690.25H401v30.25h-65.5z"/><path style="opacity:1;fill:#804040;fill-opacity:1;stroke:none;stroke-width:5.004;stroke-dasharray:none;stroke-opacity:1" d="m371.25 683.75 6.25-29.5h50.25L417 683.5ZM379.363 645.235l6.364-27.577h13.788v27.223zM409.768 644.528v-26.163h32.174l-10.607 26.516zM386.434 608.465h47.73v-30.759h-41.72zM410.122 543.765v26.517h65.407v-27.578zM401.283 532.451l36.063.708.353-27.224h-31.466zM447.599 505.935h14.849v28.991h-14.849zM408.708 495.328l4.596-26.87 57.63 1.414-2.122 26.87zM399.869 266.226h-8.485l2.474 9.192 6.364-.707zM410.829 266.58v9.192l23.335-.707-1.768-8.84zM395.273 284.257l4.95 26.516h37.123v-18.738l-1.061-7.778zM620.84 729.38l4.596 26.87 37.123.354V728.32zM672.812 729.381h51.265v27.577h-51.265zM710.289 692.258h13.789v27.577h-13.789zM633.214 692.258h67.175v27.931h-67.175zM624.375 655.134h38.891v28.284h-38.891zM672.459 683.772v-28.991h6.01l6.717 28.638zM635.335 645.942l.708-27.577 33.94-.354 5.658 28.285zM448.306 578.06h64.7v29.698h-64.7zM522.905 578.06h65.761v29.698h-65.761zM596.091 576.999h66.114v31.466h-66.114zM598.212 544.119h53.033v26.87h-53.033zM597.859 506.996h49.497v27.577h-49.497zM597.652 497.721l42.633.082-6.364-28.284-45.276-.06s8.967 6.178 8.9 9.334z"/><path style="display:inline;opacity:.230114;fill:#804040;fill-opacity:1;stroke:none;stroke-width:5.004;stroke-dasharray:none;stroke-opacity:1" d="m504 362.5-13.5-8.5s-2.5-3 0-7.25 10.5-4.5 10.5-4.5l-18.5-11.5s14.75-6.25 17-6.75-.5-3-.5-3l-4.75-5.75s-2.4-2.962.25-6c1.48-1.697 5.25-4.25 5.25-4.25s-10.642-14.581 8.018-18.558c2.046-.436.6 10.616.6 10.616s7.738 5.234 10.98 3.225c5.117-3.172 3.152-17.783 3.152-17.783l18.75 5.25s7.75-1.5 6.25 6S534.75 307 534.75 307l8.25 4.25 4.25 5s6.25-2.75 5.75-3.75-1.75-9-1.75-9l9 8.25s3.25 10.75-2.5 11.75-8.5 5.5-8.5 5.5l1 3.75 7.25 5 2.5 3.5-11.75 6.25 1.5 4.75 13.5 9.5z"/><path style="display:inline;opacity:1;fill:#804040;fill-opacity:1;stroke:none;stroke-width:1.56579;stroke-linecap:round;stroke-linejoin:round;stroke-dasharray:none;stroke-opacity:1" d="M447.75 432h140.5v28h-140.5z"/><path style="display:inline;opacity:1;fill:#804040;fill-opacity:1;stroke:none;stroke-width:1.62142;stroke-linecap:round;stroke-linejoin:round;stroke-dasharray:none;stroke-opacity:1" d="M597.5 431.25V460h34.25l-7.531-28.108zM634.805 274.888h8.309l1.237-9.016-9.546.089zM625.082 274.976l-.088-9.015-28.284.265-.796 8.927zM596.975 284.169l.177 26.781 41.1.177 3.713-26.958zM485.606 274.888l-.177-9.193 59.927.354 1.591 8.839zM481.186 283.903h31.82l.53 27.4-65.054.354.177-10.96 29.168.354zM522.375 284.257l.177 27.4 65.76-.707-.353-10.43-33.234 1.238-4.95-17.678zM485.075 348.957l65.584.177-.353-27.577-65.408-.177zM560.205 321.91c0 1.061.177 27.224.177 27.224l72.832-.707 4.066-27.577zM597.152 358.503v10.96l32.88 6.718 2.121-17.501zM587.429 358.326l.707 12.552-28.107 14.495-17.501-23.511 10.43-3.536zM625.082 397.04c0 .708-1.59 25.987-1.59 25.987h-53.387l-.354-26.87zM559.675 423.203l.53-28.107-76.19.53 2.12 27.577zM409.768 358.503l4.243 23.511 22.981.354.884-24.042zM447.952 358.857l.884 25.986 63.463-.354-.707-25.632zM408.53 348.957l66.646-.353V321.91H406.94z"/></g></g><g style="display:inline;fill:#1f1e00;fill-opacity:1"><path style="display:inline;opacity:1;fill:#1a1a1a;fill-opacity:1;stroke:none;stroke-width:1.62142;stroke-linecap:round;stroke-linejoin:round;stroke-dasharray:none;stroke-opacity:1" d="M449.266 361.068c-5.572 2.601-11.766 2.828-17.343 5.569-4.486 2.566-8.825 5.825-12.02 9.927-3.555 4.366-7.61 8.843-7.987 14.746-1.262 7.175-.526 14.508-.924 21.748.094 6.883-.134 13.77.145 20.649-5.205 6.513-11.164 12.911-13.389 21.139-.267 5.998 5.608 9.923 10.29 12.495 5.064 2.861 11.688 6.075 17.392 3.204 5.17-2.18 9.423-5.743 14.148-8.88 3.96-3.562 6.077-6.718 8.023-11.6 2.264-4.167 9.289-4.195 13.36-4.514 6.552 1.008 13.15-1.83 17.73-6.398 3.294-4.66 3.44-10.79 6.244-15.648 2.842-4.738 5.694-8.487 11.274-10.42 4.757-2.837 8.737-6.616 12.277-10.876 2.275-4.519 3.991-10.75-.908-14.291-5.289-4.905-13.298-2.749-19.938-2.5-5.392 1.287-10.678 2.656-15.972.224-5.86-1.923-11.88.835-17.753-.213-2.64-3.392.838-9.143-.69-13.57.384-2.77 1.679-7.611-3.16-5.38-4.666 1.542 6.147-6.593-.8-5.41z"/><path style="opacity:1;fill:#fff;fill-opacity:1;stroke:none;stroke-width:1.62142;stroke-linecap:round;stroke-linejoin:round;stroke-dasharray:none;stroke-opacity:1" d="M443 366.75c-5.231 1.036-10.388 2.844-15.127 5.246-5.496 3.957-9.883 9.466-12.973 15.477-2.73 5.075-1.63 11.072-1.894 16.603-1.07 4.012 3.233 6.465.232 10.11-1.187 4.22.131 8.557-.468 12.84 1.009 4.44-.156 8.099-3.698 11.076-2.584 3.82-4.992 7.831-7.459 11.798-1.074 3.867 3.985 6.382 6.035 9.223 3.93 4.03 9.672-.203 9.221-5.146.079-4.184 4.486-7.536 8.412-5.426 4.173 2.698 2.761 8.507 4.174 12.56 5.467 1.041 5.406-6.48 8.973-8.724 4.799-.755 5.8-5.51 10.242-6.711 5.898-2.582 12.52-3.362 17.988-6.885 4.277.534 3.376-7.692 7.053-5 .409 2.99-.31 10.16 2.394 3.807 1.232-4.175-.022-8.763 4.02-11.723 2.42-3.61 3.86-7.749 3.842-12.111.457-3.867-5.194-2.987-6.155-6.764-3.454-3.747-6.633-7.958-11.296-10.309-4.012-2.835-9.227-2.835-13.487-5.253-3.082.238-9.173-1.892-9.199 2.894 1.367 4.41 10.555-1.95 7.793 4.387-2.82 4.554-8.033 6.432-11.44 10.322-1.984 3.515-9.88 2.519-5.476-1.963 2.148-3.759 2.692-8.728 6.94-9.998.343-4.82-7.745-4.06-9.07-8.506 1.93-5.05-5.809-3.558-4.052.776 1.693 5.753-5.202 8.228-9.2 10.232-3.153-1.44 2.89-6.152 2.486-9.373 1.196-4.06-.253-10.62 5.814-10.584 3.532-.047 4.267-3.817 2.729-5.734 1.643-1.592 3.979-4.224 5.304-.862 3.101.001 5.717-3.907 7.342-6.279zm10.205.473a2.99 2.99 0 0 0-.644.062c-4.346 1.079-7.584 4.469-10.801 7.268-1.031 3.8-5.358 6.057-3.36 10.5-.708 3.028.917 5.625 4.284 3.69 2.973-2.79 8.691-.828 10.664-4.645 1.48-4.633.515-9.586 1.177-14.342.117-1.284.005-2.5-1.32-2.533zm10.047 17.902s-2.633.314-3.545.38c0 0 .598 9.166 5.625 6.231 2.112-1.318 8.78-3.419 3.594-5.543-2.032-.165-5.674-1.068-5.674-1.068zm-42.084 23.533c4.316.617-.225 6.933 1.615 9.918.158 4.786.159 10-2.158 14.299-1.265 1.91-5.423 5.636-4.236.709.358-6.089.927-12.194.673-18.299-.242-2.866.588-6.505 4.106-6.627zm43.752 3.703c-1.049 3.8-.793 7.323-3.066 10.713-1.772 4.573-4.264 8.843-7.479 12.551-1.005 4.222-5.277 3.226-3.896-.922.365-2.448 1.085-5.955-2.288-5.592-2.004-4.146 2.895-7.105 5.274-9.808 4.064-.39 8.23-1.482 7.951-6.252 1.013-.586 2.364-.446 3.504-.69zm-25.072 13.149c3.426 2.022-1.8 7.858-3.83 3.845-1.718-3.655 1.2-3.366 3.83-3.845zm-5.71 1.676c3.16 2.269-1.575 5.55-1.685 8.369-3.975 1.236-5.47 4.886-8.521 7.527-2.788 3.366-5.773-.764-2.979-3.457 2.274-4.304 5.49-8.075 9.625-10.637 1.192-.576 2.352-1.24 3.56-1.802zm11.565.27c1.654 3.312.896 6.78-2.662 7.622-.353 2.95-5.182 2.754-6.428 5.97-2.275 4.246-6.683 2.037-4.213-2.128 4.376-1.898 6.39-6.952 10.473-9.408.975-.64 1.93-1.315 2.83-2.057z"/></g><g style="display:inline"><path style="opacity:1;fill:#1a1a1a;fill-opacity:1;stroke:none;stroke-width:1.62142;stroke-linecap:round;stroke-linejoin:round;stroke-dasharray:none;stroke-opacity:1" d="M616 497c-1.99-4.747-.963-12.162-2.75-15.75-2.15-4.345-3.388-8.251-6.148-12.236-3.068-3.53-5.242-7.215-8.674-10.142-3.407-3.284-7.053-6.396-10.678-9.622-1.926-2.934-5.746-3.124-9.555-3.363-4.354-.619-7.832-2.875-11.163-5.634-4.357-3.11-9.596-9.646-9.782-14.253-1.691-5.142-.49-10.515 1-15.25-.063-4.814.962-10.335-1.5-14.5-1.93-2.824-1.395-7.542 2-10 4.67-4.123 9.574-7.985 13.75-12.75 3.497-3.566 8.945-4.252 13.75-4.75 6.332.385 12.645 1.048 18.858-.326 4.81 1.01 10.57.773 13.392 2.576 2.089.892 4.738 2.338 7.25 3 1.928 1.765 4.703 3.396 5.929 4.999 2.213 1.415 3.254 4.572 3.876 7.589.393 3.513.387 7.736-3.555 8.662-5.612 2.549-11.619 3.008-17.75 2.5-3.127.359 5.426 3.843 0 6.25-3.455 1.758-5.051 3.773-8.25 5.25-2.845 2.351-5.804 5.47-8.774 7.133-3.265 1.634-7.222 2.463-9.476 5.367-2.502 4.15-1.512 9.545-1.869 14.419 1.551 3.001 3.782 6.256 7.681 7.704 3.898 1.437 6.797 2.876 10.592 3.096 4.434 1 10.531 2.755 15.846 2.031 4.88-.835 9.412-2.151 14.5-2.25 4.843-.363 10.313-.638 14.75.25 1.42 1.923 5.318 1.179 6.25 4 2.361 3.55-1.744 6.386-5.749 5.519-3.58.237-6.386.429-9.251 1.731-1.611.894-1.69 1.863-3.5 2.5-3.017 1.57-6.251 3.578-8.68 5.318-1.58 2.042-6 3.077-4.498 6.725-.183 7.816.009 15.647-.072 23.457-.835 2.378-.227 9.194-4.152 7.529-1.727-1.552-2.98-4.252-3.598-6.779Z"/><path style="opacity:1;fill:#fff;fill-opacity:1;stroke:none;stroke-width:1.62142;stroke-linecap:round;stroke-linejoin:round;stroke-dasharray:none;stroke-opacity:1" d="M609.588 370.41a3.304 3.304 0 0 0-.836.123c-1.953.194-3.924.208-5.842.66-1.346.253-2.666.624-3.969 1.032-1.056.787-1.88 1.896-2.94 2.716-.857.893-1.744 1.916-2.802 2.512-1.058-.26-2.893-.742-3.31.465-.958.386-1.58 1.664-1.776 2.629-.662 1.533-1.317 3.238-2.888 4.06-1.271.82-3.273 1.45-2.864 3.372.513 1.831-.859 3.057-2.357 3.746-1.304 1.18-2.422 2.58-3.361 4.062-.573 1.44-1.91 2.353-3.29 2.922-1.009 1.058-2.549 1.748-2.923 3.252-.828 1.702-.555 3.767-.838 5.611-.247 1.281-.779 2.374-1.467 3.428 1.25.276 2.305 2.608 3.658 1.111 1.11-1.849-.365-4.205.752-6.04 1.517-1.27 1.461 2.098 1.6 3.095a2.636 2.636 0 0 0 .002 1.85 2.694 2.694 0 0 0-.205.369c.433 2.051-2.003 6.33-3.61 2.992-.898-2.088-2.914-1.497-2.017.74-.11 2.592-.88 5.085-1.565 7.563-.65 2.345.999 3.707 3.258 3.207 1.356 2.352.606 5.343.84 7.98.612 2.348 3.787 1.72 5.416 2.979.859 2.168.195 5.455 2.748 6.838 2.431.021 4.685.839 6.273 2.82 2.198 1.529 3.607 4.582 6.256 5.047 3.066-1.16 4.82 1.845 7.127 3.101 1.406 2.292 1.032 6.245 4.418 7.21 3.08 2.047 3.75-1.615 3.084-3.86-.715-2.069-.463-4.217-.572-6.354-.192-2.137.107-4.906-2.83-4.43-2.385-1.043-4.994-.62-7.383-1.616-2.495-.641-4.553-2.09-6.844-3.131-2.299-.392-2.639-2.768-3.293-4.58-2.122-4.134-2.16-9.012-1.437-13.502 1.014-2.837 2.37-5.749 4.922-7.52 1.466-1.88 3.647-2.667 5.773-3.523.837-.565 1.736-1.04 2.62-1.526.932.596 1.859.859 2.837-.029 1.17-2.983 5.32-2.046 6.305-4.992 2.358-2.15 1.188-6.629 4.482-7.68 3.105-2.56-2.33-4.192-4.383-4.685-2.35-.516-4.814.836-7.066-.112-2.424-2.383.51-5.464 3.07-6.015 3.354-.588 6.716.904 9.873 1.898 2.765.18 6.287.218 8.284-1.967 1.499-3.102 5.17-2.42 7.386-4.572 1.621-1.485 1.952-4.144.473-5.508.113-.254.129-.515-.127-.783-1.218-.66-2.712-.418-3.936-1.086-1.028-.74-2.19-1.202-3.32-1.762-1.219-.722-2.646-.811-3.789-1.644-1.312-.708-2.76-1.188-4.195-1.602-1.114-.32-2.231-.894-3.422-.87zm4.463 4.16c1.256.006 2.45.599 3.39 1.371.78.92.166 1.215-.525 1.534-.138-.044-.273-.1-.416-.1-.01 0 .004.19.006.299a1.783 1.783 0 0 0-.502.369c-.4.038-1.15.036-1.576.053.026-.116.054-.234.072-.346-1.674.051-2.09-2.882-.449-3.18zm-34.08 9.758c-.367.01-.755.372-.867.787-.58.846-1.278 1.609-1.815 2.485-.626.614-1.368-.253-1.516-.87-.22-.608-.097-1.445-.765-1.793-.715-.43-1.655-.457-2.418-.146-.836.426-1.184 1.531-2.158 1.723-.102.01-.207.005-.307-.014-.274 1.589-.569 3.193-.5 4.812-.172 1.457-.35 2.922-.273 4.391.472.659.574 1.616 1.345 2.031.814.204 1.408-.57 1.951-1.045.607-.637 1.068-1.417 1.282-2.273.438-1.065 1.303-2.012 1.275-3.225.003-.679.794-.877 1.217-.545 1.071-.379 2.124-.817 3.18-1.232.78-.531.695-1.574.824-2.398.184-.735.436-1.528.119-2.262-.14-.31-.354-.432-.574-.426zm14.775 3.668c.794.04 1.577.442 2.34.508a3.217 3.217 0 0 1-.451 1.531c-2.77-1.769-4.15 3.144-4.35 5.53-.635 1.197-4.109 3.198-1.303 4.341 1.889-1.37 7.434-.687 4.77 2.324-.465 2.082-3.577 4.059-3.18 6.045-.948.436-1.812 1.009-2.459 1.897-1.76 1.775-3.507 3.634-5.017 5.53-1.76 1.32-2.435 3.332-3.024 5.357-1.088 1.858-2.252 3.708-3.342 5.566-.582-1.618-.853-4.02 0-5.719 1.267-1.865 1.457-4.244 2.708-6.136 1.05-2.66 3.417-4.439 4.88-6.803.115-.21.306-.682.256-1.002.087-.141.155-.294.196-.465-.737-1.478-3.638-.207-3.467-2.258.153-1.757 1.778-2.828 2.234-4.482.501-1.448 1.064-2.867 2.057-4.065.56-1.426 1.435-2.756 2.168-4.068.883-1.53 2.346-2.587 3.888-3.393.368-.2.733-.256 1.096-.238zm-29.902 11.729c-.418.015-.83.122-1.219.275-.386.202-.511.662-.746 1-.228.37-.385.828-.74 1.088-.38.223-.329.69-.317 1.064.015.713.083 1.43.02 2.139.08.102.331.135.113.232.49.34 1.152.292 1.705.135.356-.062.631-.296.95-.443.376-.017.755-.195.88-.582.184-.574.524-1.075.758-1.625.163-.376.191-.788.2-1.19.158-.314.322-.641.23-1.007-.103-.322-.041-.942-.522-.91-.395.075-.747-.148-1.133-.176a2.691 2.691 0 0 0-.18 0zm-3.502 17.941c-.26.008-.514.061-.723.15-.13.337.103.745-.119 1.059-.43 1.176-.445 2.473-.195 3.688.408.566.651 1.204.963 1.816.428.445.745.995.779 1.623.152.626.645 1.118.738 1.771.203.79.164 1.716.75 2.348.123.465.166.943.418 1.338.164.715.816 1.424 1.604 1.307.478-.26.912-.318 1.086-.823.197-.665-.458-.932-.522-1.558-.405-1.223.004-2.542-.318-3.783.043-.535-.464-.941-.537-1.36.034-.438-.423-.622-.368-1.092-.343-.599-.222-1.259-.33-1.908-.16-.583-.314-1.163-.406-1.76-.247-.485-.377-.956-.781-1.341-.105-.477-.351-1.06-.838-1.11-.312-.269-.767-.379-1.201-.365zm-3.758 7.973c-.83-.033-1.758.755-2.584.861-1.368.201-2.76-.102-4.125 0-.634.542-1.497.691-1.31 1.69-.265 1.05-.364 1.755-.659 2.806-.66 1.01-.274 2.06.889 2.365.982.211 2.115-.657 2.785-1.373.971-.518 2.306-.346 3.42-.363.468.727 1.076 1.158 1.5 1.875.534.96 1.15 1.905 1.623 2.926.295.846.864 1.423.994 2.203.537.584.842 1.357 1.426 2.142.666 1.02 1.146 2.18 2.082 2.979.43.478.864.99.135.285.112.516 1.175 1.634 1.886 2.016.963.279 1.688.847 2.725.818 1.051.502 2.347.551 3.44.317 1.286.126 1.835-1.479 1.974-2.553.152-1.448-1.704-1.472-2.152-2.645-.783-.844-1.678-1.603-2.557-2.326-1.129-.705-2.165-1.205-3.316-1.898-.823-.738-1.779-1.56-2.135-2.639-.53-.92-1.518-1.715-2.107-2.605-.845-.71-1.655-1.554-1.815-2.7-.26-1.088-.146-2.27-.898-3.203a6.28 6.28 0 0 0-.43-.617 1.144 1.144 0 0 0-.791-.361zm70.924 23.316c-2.241.051-5.132 2.643-4.024 3.322.134 2.513 2.206 2.652 3.52 1.776.667-1.26 2.085-1.66 3.023-2.182.573-.762.027-1.426-.777-2.121-.431-.589-1.056-.81-1.742-.795zm-14.25 9.639c-.582-.012-1.198.416-1.508.906-.742 1.174-.187 2.774-.26 4.158-.002.747-.055 1.559.346 2.223.712.653.918 1.095 1.824 1.166.382.03.813-.137.846-.54.066-.426.459-.668.826-.81.326-.266.208-.732.291-1.095.109-1.24.598-2.566.156-3.729-.554-1.37-1.31-2.133-2.404-2.271a1.146 1.146 0 0 0-.117-.008zm-6.403 4.722c-.42.019-.816.27-1.072.633-.479.36-1.117.745-.898 1.461.381 3.616.338 2.694 2.91 1.678.637-.385-.103-.934-.047-1.574-.13-.669.332-1.618-.314-2.065a1.122 1.122 0 0 0-.579-.133z"/></g><g style="display:inline;stroke:#1a1a1a"><path style="display:inline;opacity:1;fill:#60803f;fill-opacity:1;stroke:#1a1a1a;stroke-width:2.38999;stroke-linecap:round;stroke-linejoin:round;stroke-dasharray:none;stroke-opacity:1" d="M501.015 394.398c-4.43.517-.436 5.894.954 7.86 3.315 4.548 7.125 8.687 11.039 12.69l4.997 57.286h15.865l4.997-57.285c4.884-5.15 10.01-10.283 13.44-16.615 2.754-4.709-3.543-4.117-6.307-3.891-9.337-.02-18.668.725-28 .217-5.66-.14-11.323-.222-16.985-.262z"/><path style="display:inline;opacity:1;fill:#60803f;fill-opacity:1;stroke:#1a1a1a;stroke-width:1.98047;stroke-linecap:round;stroke-linejoin:round;stroke-dasharray:none;stroke-opacity:1" d="M516.865 373.447c-8.811-.008-17.554.083-26.435.133.688 3.014 1.27 8.379 3.625 11.723 1.982 2.814 4.566 5.785 8.261 6.197h46.196c3.695-.412 6.28-3.383 8.261-6.197 2.355-3.344 2.937-8.71 3.625-11.723-11.743-.067-23.244-.202-34.984-.088a971.092 971.092 0 0 0-8.549-.045z"/><path style="display:inline;opacity:1;fill:#60803f;fill-opacity:1;stroke:#1a1a1a;stroke-width:1.62142;stroke-linecap:round;stroke-linejoin:round;stroke-dasharray:none;stroke-opacity:1" d="m491.1 370.25 35.025.25v-7.25H484.5ZM561.151 370.25l-35.026.25v-7.25h41.625z"/></g><g style="display:inline;fill:#fff;fill-opacity:1;stroke:#000;stroke-opacity:1"><path style="display:inline;opacity:1;fill:#fff;fill-opacity:1;stroke:none;stroke-width:1.54572;stroke-linecap:round;stroke-linejoin:round;stroke-dasharray:none;stroke-opacity:1" stroke="none" d="M505.5 565h52v10.25h-52z"/><path style="display:inline;opacity:1;fill:#fff;fill-opacity:1;stroke:#1a1a1a;stroke-width:2.34482;stroke-linecap:round;stroke-linejoin:round;stroke-dasharray:none;stroke-opacity:1" d="M465.063 473.298H595.39v96.008H465.063z"/><g style="display:inline" stroke="none"><path style="display:inline;opacity:1;fill:#feffff;fill-opacity:1;stroke:none;stroke-width:2.84417;stroke-linecap:round;stroke-linejoin:round;stroke-dasharray:none;stroke-opacity:1" d="M478.711 549.245h103.945v11.49H478.711z"/><path style="display:inline;opacity:1;fill:#bfffff;fill-opacity:1;stroke:none;stroke-width:2.36649;stroke-linecap:round;stroke-linejoin:round;stroke-dasharray:none;stroke-opacity:1" d="M478.181 541.997h103.945v7.955H478.181z"/><path style="display:inline;opacity:1;fill:#c0c0fe;fill-opacity:1;stroke:none;stroke-width:2.35843;stroke-linecap:round;stroke-linejoin:round;stroke-dasharray:none;stroke-opacity:1" d="M478.181 537.401h103.945v5.834H478.181z"/><path style="display:inline;opacity:1;fill:#a1c0ff;fill-opacity:1;stroke:none;stroke-width:2.35843;stroke-linecap:round;stroke-linejoin:round;stroke-dasharray:none;stroke-opacity:1" d="M478.534 517.425h104.298v20.683H478.534z"/><path style="display:inline;opacity:1;fill:#80c0fe;fill-opacity:1;stroke:none;stroke-width:2.35843;stroke-linecap:round;stroke-linejoin:round;stroke-dasharray:none;stroke-opacity:1" d="M478.181 500.278h104.298v20.683H478.181z"/><path style="display:inline;opacity:1;fill:#60a1ff;fill-opacity:1;stroke:none;stroke-width:2.35843;stroke-linecap:round;stroke-linejoin:round;stroke-dasharray:none;stroke-opacity:1" d="m478.004 500.93 104.652.53v-18.738l-104.652-.53z"/></g><path style="display:inline;opacity:1;fill:none;fill-opacity:1;stroke:#1a1a1a;stroke-width:2.31673;stroke-linecap:round;stroke-linejoin:round;stroke-dasharray:none;stroke-opacity:1" d="M478.337 482.226h104.34v78.531h-104.34z"/></g><g style="display:inline"><path style="display:inline;opacity:1;fill:#fff;fill-opacity:1;stroke:none;stroke-width:2.35843;stroke-linecap:round;stroke-linejoin:round;stroke-dasharray:none;stroke-opacity:1" d="M444.24 617.481c-.39 2.59-5.46 10.515-6.435 15.644-3.776 8.212-5.382 17.243-9.02 25.471 3.466 6.59 14.174 1.23 20.512 3.196 7.822 1.154 15.291-1.798 23.025-1.888 12.187.344 24.566 3.133 36.59-.314 8.991-1.467 17.907 1.648 26.938.45 12.009-.973 23.944-2.794 35.98-3.56 8.717 1.027 17.432-2.58 26.036-.427 7.673 2.478 15.758 3.475 23.754 3.978 4.203 2.649 12.865 4.22 9.808-3.788-1.233-8.036-2.869-15.934-1.912-24.092.978-7.385-2.423-13.899-10.286-13.89-5.698-3.593-11.476-8.526-18.75-7.153-7.784.83-15.558.75-23.373.89-9.67 1.591-19.652-1.292-29.186.922-6.209 2.006-10.76 7.81-16.539 9.668-5.568-4.13-11.68-7.407-18.749-8.33-6.345-1.027-11.737-5.31-18.376-4.943-9.357-1.324-18.748.374-28.097 1.095-6.897-1.566-15.244-.539-19.254 6-.724 1.02-3.908 4.915-2.666 1.071z"/><path style="display:inline;opacity:1;fill:#bfffff;fill-opacity:1;stroke:none;stroke-width:2.35843;stroke-linecap:round;stroke-linejoin:round;stroke-dasharray:none;stroke-opacity:1" d="M429.92 655.488c7.57 2.782 16.09-.803 24.073.108 6.113-2.456 13.42-.813 19.912-2.018 7.642-.156 15.213.35 22.837.496 7.122.022 14.044-1.418 21.214-.707 7.192.124 14.15 2.44 21.211 1.759 7.382-3.03 15.741-1.128 23.161-2.357 8.52-.458 17.104.063 25.631-.11 6.29 1.964 14.014.355 19.544 1.824 6.124.644 11.984-.172 17.226 2.42 4.066 1.163 7.946 2.8 8.314 7.686-.699 5.376.177 9.86 1.452 13.892.258 4.796-6.902 1.63-10.235 2.463-5.905-.132-11.798.134-17.663.517-7.288-.758-14.424 1.831-21.721-.227-7.785-.738-15.505-.182-23.261.148-7.735-.77-14.66 1.865-22.46 1.17-7.192-.759-15.249-1.418-21.906.867-6.591 2.622-14.38 3.372-21.567 2.121-10.649-1.097-21.513-.956-32.277-1.145-4.5.694-9.123.98-13.883.791-4.078-.098-8.168.087-12.176.354-5.285-2.674-12.213-1.83-17.325-4.243.085-2.768 2.815-8.67 4.243-12.374 2.694-2.706 1.205-10.01 5.657-13.435z"/><path style="display:inline;opacity:1;fill:#c0c0fe;fill-opacity:1;stroke:none;stroke-width:2.35843;stroke-linecap:round;stroke-linejoin:round;stroke-dasharray:none;stroke-opacity:1" d="M637.81 705.339c4.042-8.019-4.942-14.756-3.085-22.812-.48-8.381-12.255-5.303-18.113-6.281-6.187.407-12.245 1.901-18.569 1.1-8.403.718-16.8.532-25.102-.987-14.94-1.605-29.987-.458-44.866.966-8.54-1.56-17.177-3.188-25.732-.59-7.677 1.363-15.146 4.499-23.087 2.972-7.837-1.994-15.834-1.93-23.9-1.53-11.626 2.365-23.556.969-35.335 1.353-1.01 7.894-11.3 18.65-1.39 24.427 8.819 4.55 18.941 1.396 27.914-.994 14.74-2.301 29.43 2.318 44.216 1.017 17.925-.255 35.904.483 53.764-.887 21.865.353 44.004 1.648 65.561-2.814 7.955-1.782 14.206 4.668 21.766 4.388 1.995-.022 4.09-.186 5.958.672z"/><path style="display:inline;opacity:1;fill:#a1c0ff;fill-opacity:1;stroke:none;stroke-width:2.35843;stroke-linecap:round;stroke-linejoin:round;stroke-dasharray:none;stroke-opacity:1" d="M402.53 721.39c3.514 4.362 16.707-1.804 16.707-1.804s11.63-3.662 18.607-2.944c5.789-1.336 14.107-.117 18.656.358 7.998.18 15.496 2.109 23.727 2.252 7.752.19 15.989-.71 23.273-.252 5.87.21 15.763 2.737 15.763 2.737l13-2 29.969-3.388 18.752 2.78s11.943 1.933 16.516 2.371c6.265-.33 11.544 1.048 17.325 2.438 7.707-1.694 15.883.795 23.485-.888.964-1.093 8.417-.445 5.177-6.503-.235-5.805-4.009-11.116-6.43-14.895-4.753-5.13-11.633-9.531-19.482-7.383-7.074-2.761-14.87.27-22.674-.066-8.167-.083-16.442-.554-24.546.07-11.471 1.59-23.152.125-34.7.987-8.287-1.188-16.666-1.308-25.18-1.807-7.43.447-14.537-.56-21.835-.536-8.02-.204-16.113.357-23.64 2.583-8.271.937-16.688.462-25.02 1.216-7.825 1.06-16.513-2.197-23.48-.216-2.29 1.455-2.413 3.53-4.5 5-1.76 4.144-4.438 6.153-6 9.5-2.646 5.668-5.76 7.545-3.47 10.39z"/><path style="display:inline;opacity:1;fill:#1a1a1a;fill-opacity:1;stroke:none;stroke-width:2.35843;stroke-linecap:round;stroke-linejoin:round;stroke-dasharray:none;stroke-opacity:1" d="M500.746 607.91c-.74.014-1.481.09-2.226.256-3.188-.35-6.228.897-9.438.533-2.935-.728-5.863-.235-8.834-.052-2.442-.193-5.003.463-7.371-.182-3.09-.012-6.191.008-9.287 0-2.084-.272-3.7-.083-5.99-.02-1.207.074-2.175.19-2.975.11-3.868-.11-5.062-.552-7.027.795-2.695 1.843-4.921 4.263-5.703 7.554-1.58 2.923-2.035 6.004-3.135 8.885-.307 3.342-1.693 6.35-3.008 9.363-1.335 2.708-1.971 6.266-3.002 8.14-1.184 2.693-2.208 5.888-4.094 8.107 0 0-1.346 3.495-2 5.185-.877 1.436-1.176 3.122-1.508 4.738-.855 1.303-.97 2.778-1.6 3.971-.743 1.107-.738 2.835-1.765 4.018-.838 1.49-.94 3.26-1.762 4.738-.387 1.803-1.153 3.476-1.507 5.383-.787 1.158-.985 2.725-1.592 4.072-.43 1.195-.666 2.96-1.143 3.98-.538 1.46-1.146 2.071-1.666 3.63-.714 1.748-1.15 2.44-1.705 4.294-.245.718-.62 1.657-.943 2.38-.053 1.102-.731 2.512-.768 3.632-.143.463-.286.92-.508 1.336-.325.976-.862 1.738-1.59 2.393-.663.534-1.275 2.294-1.275 2.294s-.378 2.164-1.027 2.84c-.49.922-1.824 2.457-1.824 2.457s-1.26 1.214-1.436 2.278c-.68 1.003-1.545 3.752-1.545 3.752l2.442-1.051s1.905-2.645 2.462-3.904c.241-1.227 1.752-2.398 2.442-3.452 1.038-.867.64-2.128 1.346-3.168.348-1.238 1.048-2.21 1.761-3.234.589-1.006.971-1.97 1.616-2.916.677-.704.816-1.723 1.402-2.496a8.19 8.19 0 0 0 .885-2.336c1.264-2.298 2.582-7.535 2.582-7.535s1.443-2.648 1.945-5.082c.325-1.13.853-1.765 1.121-2.934l.824-1.662.147-1.031c.214-.786.45-1.566.736-2.328.56-1.77 1.125-3.573 1.443-5.754.34-1.043.645-2.05 1.21-3.086.75-.98 1.734-2.388 1.75-3.914.153-1.446 1.438-2.556 1.548-4.235.519-1.18 1.372-2.067 1.916-3.285.467-.914.99-1.468.934-2.402-.026-.653-.24-1.138-.57-1.465 1.595-4.613 3.42-9.176 5.558-13.514 1.33-2.882 2.312-5.67 3.535-8.838.608-2.662 1.132-5.575 3.182-7.601.99-1.67 2.37-4.847 4.28-2.95-.276 3.348-2.014 5.645-3.063 8.696-1.148 2.935-1.772 6.203-2.985 8.926-1.385 3.386-2.027 6.78-3.181 10.076-.186 3.575-1.907 7.074-3.36 10.43-.913 3.113-1.478 5.941-3.295 8.732-1.552 3.09-2.527 6.226-4.128 9.299-1.206 2.687-2.703 5.09-3.077 8.11-1.373 3.28-2.464 6.562-2.933 10.099-1 3.03-1.623 5.994-3.006 8.662.797-.583 2.96-4.069 4.262-5.906 1.492-2.395 2.68-5.503 3.869-8.059 1.164-3.03 1.683-6.259 3.123-9.267.883-2.576 1.257-5.384 2.082-6.899 1.609-3.003 2.293-5.284 3.61-8.51 1.325-2.06 2.404-5.224 3.118-7.94 1.074-2.658 1.573-5.37 2.21-8.044.461-3.552 1.865-6.651 2.704-9.793 1.015-2.402 1.84-5.007 2.422-7.354.935-1.498 1.9-3.198 2.432-4.95 1.33-2.228 3.714-4.94 4.463-7.425.753-1.61 1.575-3.47 2.17-5.48h7.953c2.822.341 5.588-.343 8.355-.332 3.337-.43 6.708.1 10.043-.31 2.534-.356 5.027.058 7.44.41 3.474.206 6.968-.02 10.451.056 2.066-.123 4.093-.142 6.049.576-.356-.107-.524-.154.053.018.443.135 1.142.354 1.398.475 1.645.307 3.957 1.233 5.13 1.584 2.426.596 4.355.896 6.731 2.015 2.056.669 4.29 1.477 6.352 2.58 1.285.825 2.69 1.947 4.133 3.014-.081.986.014 2.171-.24 3.094.115 2.623-.665 5.045-1.153 7.591-1.078 2.104-.777 3.95-1.137 6.008-.87 2.865-.86 6.317-2.134 8.842-.242 2.22-.965 5.957-.965 5.957s-.57 5.503-1.332 8.451c-.176 2.179.11 4.394-.444 6.541-.135 2.391-.138 6.59-.882 9.057-.055 2.492-.09 3.134-.528 5.594-.16 2.655-.601 8.205-.601 8.205l.181 4.969s2.372-3.787 3.065-5.32c.663-1.737 1.65-3.344 1.683-5.358.401-2.052.923-3.158.707-5.342.035-1.991-.053-4.001 0-5.973.349-2.473.563-4.145.827-6.734.343-2.536.54-5.837.74-8.332.115-2.657.105-4.29 1.006-6.752.31-2.018.643-4.454 1.09-6.621.597-.69.12-3.83 1.287-5.147.286-1.453.386-3.492.619-4.597.648-1.293 1.326-6.188 1.326-6.188s1.41-4.604 2.144-7.385c.144-.087.285-.208.414-.37 1.141-1.027 1.994-1.717 3.008-1.94 1.425-.811 2.524-1.263 4.235-1.863.679-.586 2.642-1.182 3.984-1.899 2.236-.777 4.538-1.459 6.805-1.547 2.305-.114 4.553-.844 6.94-.834 2.29-1.11 4.763-1.01 7.267-1.007 2.66.673 5.465.522 8.205.386 2.66-.42 4.896-.71 7.572-.761 2.296.308 4.67.445 7.074.457 2.372-.054 4.815.085 7.086-.512 2.374-.175 4.63-.817 6.983-1.055a.067.067 0 0 1 .011.008c4.456-.748 5.64 3.371 5.01 7.192-.262 4.13 1.512 7.54 1.633 11.6 1.274 4.063.587 7.169 2.082 11.097.182 3.078 1.406 9.033 1.406 9.033s.912 5.774 2.54 8.076c.534 3.38.958 7.46 1.472 11.043.393 3.054 1.65 4.938 2 7.75.204 3.11 2.433 4.942 3.33 7.79-.875 3.682 1.591 8.01-.58 11.21-1.375 2.62-3.503 4.422-6.5 4.5-3.685.547-6.676 1.279-10.447 1.213-4.943.545-10.027.61-14.983-.07-2.545-2.166-6.465-.533-8.32 1.357 3.097.674 6.537.577 9.602 1.305 3.392.05 6.594 1.511 10.398.945 3.134-.794 6.946 1.339 9.5-.25 2.999-.217 5.976-2.147 8.5-2.75.589-1.03 3.211-1.51 4.75-2.25 3.016-.72 2.995-3.926 2.25-7.375-.925-3.147-1.302-6.846-2.022-9.697-.26-3.07-.696-6.335-2.109-9.383-.87-3.5-1.818-7.88-2.701-10.678-.085-3.607-.525-7.82-1.44-10.845-.608-3.655-1.72-10.95-1.72-10.95s-1.596-5.249-1.416-9.677c-.066-3.862-4.096-9.477-1.323-12.778 2.983-.4 6.221.698 4.942 5.303-.997 3.754-.842 7.38-.461 11.33 1.114 2.896 1.033 6.78 1.75 9.5-.257 2.609 1.932 7.781 1.932 7.781s1.367 7.385 2.625 10.706c.394 3.543 1.26 7.072 2.265 10.439.174 4.177.772 8.714 2.178 12.635.76 3.077.728 5.712 1.74 8.443.79 2.948 1.873 5.153 2.211 8.234 1.567 4.878 1.073-.574.688-2.5-.845-3.135-.614-7.55-1.319-10.683-.71-2.105-1.725-7.282-2.148-9.094-.63-2.225-1.23-4.535-1.23-4.535s-.215-7.755-1.192-10.676c-.846-2.19-1.637-6.703-1.637-6.703s-1.305-7.662-1.572-10.898c-.481-2.913-1.185-6.147-1.762-9.19-.774-3.744-.38-8.395-.676-12.387-.716-2.37.905-5.819 3.465-4.173.682 2.645 1.129 6.127 1.024 9.504-.086 3.997.089 7.527.539 11.474-.351 3.864.21 8.488.867 11.799.53 4.004 1.69 7.622 2.227 11.611 1.074 3.812 1.287 7.748 1.482 11.713.803 3.102 1.666 6.383 1.928 9.604.647 3.948 2.07 14.449 2.07 14.449s1.328 4.467 1.809 8.193c1.117 3.028 2.113 6.024 3.486 8.254.18.276.343.49.498.672-7.707.786-15.55 1.764-23.404 2.002-4.24-.569-15.485-4.162-5.262-4.174 7.307-1.267 15.63-2.805 21.01-8.185-8.844 2.247-17.582 3.92-26.764 4.496-8.28 1.813-16.685.022-24.713-1.582-4.263-2.082-9.916-3.621-15.527-3.782-4.107-1.278-8.598-1.597-12.93-2.14-3.447 1.18-7.803 1.856-11.887 2.633-2.936.839-5.02 3.218-7.81 3.945-2.871.8-7.85 4.884-7.502 6.523-.53 2.74 8.222-.364 12.162-.7 6.974-.93 14.38-.055 20.98-1.669 5.888 1.702 11.977 3.268 18.399 3.742 8.151 4.576 17.58 3.793 26.475 5.221 8.943 1.988 19.3 4.053 27.712-.373 4.441-1.156 12.429-2.677 13.854-6.447-1.081.091-2.2.23-3.29.336.24-1.08-.002-2.98-.501-3.768.402-3.707-1.494-6.76-2.25-10-.893-1.864-1.514-3.6-1.75-5.75-.993-4.009-1.124-8.174-2-12.25-1.053-2.927-1.205-6.47-1.518-9.533-.833-3.715-1.161-7.306-1.27-11.461-.218-4.287-1.187-9.151-2.28-13.297-1.574-3.315-1.736-7.583-1.444-11.55-.297-3.575-1.03-6.405.135-9.796-.386-3.504.07-7.268-.885-10.347-.367-1.363-2.62-1.515-4.488-1.766-1.486-1.912-5.9-1.31-7.5-4.75-2.685-1.192-4.286-3.74-6.73-4.847-3.15-.878-5.577-2.017-9.27-1.903-.152.273-.221.51-.258.733-1.703-.056-3.42-.014-4.988.445-2.793.27-5.054-.337-7.516-.38-2.52-.111-5.143-.437-7.39-.718-2.575-.486-4.916 1.345-7.46.35-2.201-.16-4.422-.677-6.677-.676-.943-.248-1.86-.307-2.774-.299-1.522.014-3.032.218-4.634.069-2.745.796-5.572-.268-8.366.037-2.035.007-4.269.186-5.712 1.195-2.339.732-4.955 1.205-6.942 2.666-1.862 1.413-4.164 3.513-4.459 5.717-.473 1.08-1.601 1.668-2.111 2.619-.816.197-1.693.377-2.106-.23-.418-.488-.931-.82-1.207-1.202-1.35-1.174-2.002-2.004-3.17-3.021-1.473-.896-3.274-1.34-4.78-1.932-1.345-1.116-3.926-1.809-4.807-2.01-1.568-.98-2.794-1.624-4.745-2.156-1.935-.77-3.388-.755-5.285-1.34-2.197-.235-4.397-.747-6.617-.707zm57.461 92.21c-7.793 2.842-16.167 4.617-23.736 8.089-2.76 2.485-13.964 7.683-8.979 10.1 5.92-4.915 12.25-9.028 19.701-11.227 8.371-2.688 17.152-4.14 26.014-3.492 4.678-2.192 6.18-3.675-.219-3.47-4.254.077-8.548.784-12.781 0zm-94.39.704c-3.668.891-5.943 3.105-10.385 3.278-5.005 1.95-10.169 2.632-15.606 2.628-3.93.58-10.84 2.154-15.683.2-2.883-1.807-4.336-.779-1.061 1.06 2.086 2.877 6.176 3.426 9.84 3.576 4.677-.38 10.394-.766 14.201-2.162 2.648 2.228-6.52 2.375-8.838 2.828-4.512 1.398-9.996 2.24-14.318 3.006-3.22.8-15.96-3.358-8.84 1.239a20.015 20.015 0 0 0 3.912 2.25c-.048.026-.097.051-.144.08-.74.54-1.515 1.026-2.454 1.119-.746.21-1.542.248-2.316.324-.934.148-4.969.39-4.969.39s-2.158-.617-2.047.298c-.21.847.95.995 1.541 1.373.714.243 1.554.303 2.313.386.912.444 1.838.25 2.744.002 1.187-.105 2.389-.186 3.537-.531.928-.128 1.883.019 2.82.033.85.012 1.412-.098 2.249-.191.792-.204 1.26-.313 2.082-.322.677-.043.926-.521 1.123-1.311a1.09 1.09 0 0 1 .07-.373c4.944.582 9.912-.645 14.111-2.467 6.542.048 12.752.14 18.914 1.06 6.56-.27 11.62 2.46 18.08 1.555 7.342-.107 14.583.02 21.97.131 6.42.956 13.158 1.218 19.349 1.319 9.238 4.573 6.642-6.522 7.07-12.02.54-4.256-2.25-7.491-2.514-2.045-.453 3.172-.803 6.704-1.906 9.293-1.964-.723-4.542-3.085-7.248-3.89-3.473-1.142-6.977-3.164-9.545-4.772-2.766-1.835-5.244-3.21-8.133-4.244-5.861-1.61-11.816-3.165-18.027-2.65-3.97.015-7.952-.05-11.893-.45zm57.851 2.924v.176zm-38.795 3.111c4.345.348 8.498 1.537 12.633 3.606 4.217.925 6.019 5.081-.178 3.36-4.348-2.103-10.224-1.31-14.924-1.768-6.533-.277-13.332.688-19.412 1.804 1.83-1.119 3.385-3.117 5.168-4.103 3.904-2.663 10.065-1.828 15.026-2.828zm74.361 4.05c4.744.885 9.496.65 13.754 2.03 1.842.756 9.435 2.19 7.426 2.83-4.967 2.655-9.376-2.235-14.496-1.945-6.33.335-13.553-2.207-18.916 1.946-3.107 1.922-12.661 2.14-5.834-.532 4.547-2.61 9.344-4.23 14.85-3.888l1.36-.332z"/></g><g style="display:inline"><path style="opacity:1;fill:#ff7f00;fill-opacity:1;stroke:none;stroke-width:2.35843;stroke-linecap:round;stroke-linejoin:round;stroke-dasharray:none;stroke-opacity:1" d="M537.375 319.25c.707 1.404 2.701 1.39 3.979.951 1.212-.668.445-2.636 2.054-2.734 1.961-.59 3.786-1.6 5.81-1.986 1.04-.54 2.458-1.1 2.716-2.39.101-1.427.215-2.884-.34-4.288-.518-1.036-.797-3.427-.797-3.427s4.258.833 6.492 2.637c.863.937 1.588 1.988 2.405 2.961 1.021 1.673 1.897 3.56 1.732 5.572.144 1.415-.254 2.748-1.41 3.618a10.92 10.92 0 0 1-3.382 2.758c-.914.668-2.018 1.028-3.019 1.498-1.234.88-2.852.386-4.233.797-2.207.392-4.47.287-6.682.667-1.504.11-3.012-.066-4.517.024-1.054-.844-2.519-1.41-3.2-2.51-.615-1.366-2.19-1.742-3.042-2.877-.624-1.015-1.255-2.127-1.213-3.348.425-1.101 2.063-.96 3.066-1.11 1.28.292 1.968 1.526 2.622 2.548.25.32.521.673.959.639z"/><path style="display:inline;opacity:1;fill:#ffff80;fill-opacity:1;stroke:none;stroke-width:2.35843;stroke-linecap:round;stroke-linejoin:round;stroke-dasharray:none;stroke-opacity:1" d="M518.445 297.86c-.16.56.813 1.483 1.315 1.976.834.776 1.214 1.349 1.545 2.215-2.442 1.497-6.612 1.705-7.526 3.976-.98 2.031 3.069 6.647 2.01 8.327.266-2.026-.4-4.221-1.447-5.62-.878-1.522-1.652-3.037-2.928-4.148-1.95-1.869-4.954-.513-7.547-.399-1.701 4.734 4.57 5.964 3.227 11.655-.75 1.661-3.835 4.869-4.045 6.322-.264 2.369 1.312 4.362 2.18 5.58 2.516 1.667-1.472 3.551-2.97 4.05-1.882 1.064-4.103 2.087-6.386 3.259-2.609 1.58-.183 4.217 1.828 4.256 2.204.658 4.32 2.141 6.467 2.931 1.309.722 2.506 1.735.441 2.996-1.789.837-3.95 1.217-5.047 2.559-2.302 1.399-2.216 4.769-1.494 6.812.92 1.416 2.317 2.438 4.196 3.313 4.167 1.94 8.724 3.802 13.04 2.705 12.79-.978 43.615.657 41.542-1.238-1.67-1.544-2.912-3.967-4.631-5.81-.845-1.316-2.521-3.004-4.113-4.097-2.36-1.13.95-2.91 1.498-4.412.981-2.112-1.106-4.563-.782-6.918-.226-2.676-1.79-5.105-2.029-7.687-.691-.757 2.196-2.094 3-3.05 1.467-1.326 1.36-4.714.074-5.741-1.44-1.332-2.658-2.425-3.976-3.297-.799-1.389-3.383-2.87-2.508.26.516 4.18-4.359 4.65-6.557 2.765-3.934-1.887-7.714-3.922-7.178-7.607.538-2.65 6.968-4.533 5.028-7.711-.402-2.49-2.586-6.521-2.586-6.521l-3.98-.72s-1.204-3.534-2.764-.921c-1.522-.884-5.25.104-6.897-.06zm28.227 20.888.113.043z"/><path style="display:inline;opacity:1;fill:#ff7f00;fill-opacity:1;stroke:none;stroke-width:2.35843;stroke-linecap:round;stroke-linejoin:round;stroke-dasharray:none;stroke-opacity:1" d="M504.52 362.746c-1.316-1.375-1.314-1.843-2.795-2.687-4.192-2.065-8.875-2.9-11.877-6.506-1.208-1.45-.778-5.129.177-6.187.768-1.12 1.69-2.396 3.182-3.005 1.296-1.033 3.301-1.694 4.618-2.448-2.614-3.645-7.736-6.597-11.513-8.62-2.856-.457-3.343-2.678-.706-4.135 3.587-2.91 8.342-3.576 11.667-5.303 5.117-3.114-.605-5.934-2.051-8.655-1.391-2.007-1.844-4.931.545-6.582 1.606-1.345 3.977-3.001 3.122-5.485-.332-1.884-.4-5.28-.746-7.904-.619-2.653 1.052-3.5 2.577-5.05 1.699-.913 6.807-4.264 6.807-4.264s.24 5.965.352 10.716c1.169 1.185 1.892 3.334 3.407 4.51 1.501.875 3.049 2.033 5.32 2.03 2.207-.18 2.632-2.442 4.355-3.358.966-1.53 1.57-4.18.69-5.646-.181-1.097-1.583-2.608-2.317-4.24.912-1.036 4.06 1.395 5.113 1.98 1.366 1.086 1.38 2.321 1.64 1.542 1.531-2.552-.36-7.632-1.995-8.585-1.171-.682-2.211-4.9 1.112-3.435 1.563.688.342.004 2.332.938 2.234 1.23 4.226 2.759 6.884 3.103 2.483.245 3.729 1.146 5.986 2.322 2.415 1.197 4.3 2.007 5.66 4.302 1.104 1.997.648 4.931-1.08 6.173-1.442.911-2.652 2.284-4.077 2.949-1.292 1.086-2.79 1.37-3.508 3.193-1.164 1.816.077 3.839 1.768 5.039 1.895 1.345 3.925 4.67 3.925 4.67s-3.01 1.854-3.616 3.373c-1.38 1.094-3.123 3.215-3.123 3.215s-4.275-2.263-6.555-2.331c-.258-1.675-1.818-4.236-1.06-6.187.485-1.253 2.28-1.985 3.181-2.475 2.072-2.672.912-6.917-1.237-9.193-1.743-.496-3.474-.953-5.135-1.756-1.001-.076-3.421-2.42-2.642.694 1.288 2.183-2.977 2.835-1.084 3.997 1.378 2.427-1.694 4.883-2.807 1.838-1.275-2.15-4.454-1.06-2.413.257 1.727 2.084 1.706 6.318.469 7.875-.671.224-2.908 3.04-3 .818-.276-2.691-1.56-5.81-3.01-7.889-1.61-2.103-5.378-1.392-7.072 0-1.114.916.396.94 1.04 2.063 1.131 1.973 2.957 3.705 3.04 6.326-.007 2.539-1.96 3.07-2.933 4.18-2.71.702-2.894 5.284-.266 6.178 2.6.884 4.94 4.217 3.117 6.099-1.482 1.53-3.213 2.507-5.765 2.554-2.273.73-4.316.661-5.764 2.35 1.675 3.484 2.235 4.037 5.94 5.252 2.561.907 4.09 3.531 1.768 6.01-1.669 1.16-3.217 3.394-4.747 3.938-2.773.986-1.545 2.84 1.035 3.133 3.42.868 6.6 2.722 9.369 4.95.602.633 4.674 2.176 2.475 3.359"/><path style="opacity:1;fill:#ff7f00;fill-opacity:1;stroke:none;stroke-width:2.35843;stroke-linecap:round;stroke-linejoin:round;stroke-dasharray:none;stroke-opacity:1" d="M519.547 360.183c-2.299-1.017-4.829-1.904-6.606-3.74-1.787-2.166.682-4.13 2.75-4.614 1.083-.513 4.825-.154 2.145-1.607-1.835-.898-3.63-1.799-5.098-3.264-1.161-.65-3.917-1.917-1.41-2.952 2.067-1.328 4.033-3.106 6.656-1.891 1.853.297 1.625-1.057.071-1.38-1.944-.903-4.115-3.2-3.11-5.47 1.172-1.95 4.453-4.302 1.53-6.415-.766-1.83-2.708-5.459-2.708-5.459s4.44-.163 5.866 1.402c1.559 1.77 1.717 4.512 3.602 5.986 2.092-.36 1.587-3.818 1.309-5.494-2.157-2.232 3.897-4.486 3.897-4.486s4.026 3.84 6.55 5.09c2.38 1.007.762 3.552-1.067 4.055-2.542.399-2.29 2.737-.752 4.198-.055 2.894 3.494 1.677 4.573 3.477.879 2.365 4.564 1.29 3.787-1.216-.538-2.353.539-5.162 3.08-5.67 2.637-.26 3.654 2.748 5.736 3.786 1.88 1.314 8.544 4.69 8.544 4.69s-2.535 3.055-4.31 3.839c-1.636 2.064-4.939 2.554-6.992.79-1.794-1.335-3.28-4.342-5.57-2.169-1.793.636-3.736 2.366-2.823 4.445 1.027 1.798 3.823 1.395 5.583 1.16 1.496-2.393 3.359 1.35 2.108 2.75-.322 2.213 2.524 3.381 4.18 4.187 2.233.465 3.393 2.534 5.246 3.651 2.05 1.253 4.467 1.738 5.668 4.071-.973 2.447-4.696.384-6.289-.597-2.824.298-4.936-1.656-6.466-3.74-2.293-1.119-3.78-3.095-5.555-4.83-1.77-1.317-4.804-2.572-6.658-.814-1.337 2.724 2.025 4.818 4 6.055 1.51 1.708 5.265 1.345 5.403 4.032-2.193 1.5-4.91.8-7.261.215-2.465.07-4.816 1.064-7.312.891-2.577.395-5.091-.547-7.65.063-2.147.367-3.649-1.384-4.647-3.025zM518.375 281.375c-.826-1.38-1.508-2.852-2.239-4.276-.202-.932-1.192-1.704-.876-2.723.381-.648 1.145-.977 1.73-1.43.868-.56 1.561-1.348 2.226-2.13.75-.907.726-2.131.791-3.242.24-.83.213-1.748-.273-2.49-.288-.514-.044-1.854-.49-1.948-.46 1-1.443 1.613-2.325 2.2-1.023.485-2.137.815-3.016 1.562-1.513 1.07-3.157 1.972-4.564 3.184-.798.738-1.243 1.743-1.555 2.763-.442 1.144-1.144 2.338-.873 3.606.416 1.367 1.606 2.416 2.955 2.833.8.25 1.528.664 2.178 1.19a5.569 5.569 0 0 0 2.074.962c1.033.563 2.253.489 3.365.783.5.097 1.33-.21.892-.844z"/></g><g style="display:inline"><path style="display:inline;opacity:1;fill:#008040;fill-opacity:1;stroke-width:5.004" d="M463.31 299.107c-4.768 1.412-9.1 3.386-12.706 7.247-4.599 3.212-2.967 13.163-7.778 17.236-3.501 2.965-9.623 5.102-12.021 6.629 4.484-7.18 2.81-17.112 7.332-24.358 5.466-8.76-7.78 1.332-10.239 4.059-6.166 6.84-8.69 17.152-7.472 26.598-.803 6.128-7.637 7.696-11.985 12.433 1.855-5.088 3.345-10.699 4.686-15.373 1.477-5.15 3.895-17.48.531-19.623-3.694 2.56-7.45 4.999-9.369 8.84-3.763 7.532-4.644 16.74-2.83 25.101 1.162 5.355-.7 11.823-4.596 12.905-4.173-3.869-.641-11.907-3.888-16.617-3.669-5.323 1.461-20.836-5.127-10.606-4.434 5.046-5.96 12.187-5.153 19.152 1.08 5.654 5.046 14.129 4.27 20.975-1.132 2.187-3.435 4.027-4.354 6.38-1.712 1.603-2.167 5.336-3.601 6.702-2.992 3.795-.976-8.572-2.76-11.662-1.446-6.278-4.852-11.492-8.5-16.5-.29-5.173-1.777-8.675-4.5-2.25-3.329 10.125.663 20.848 5.625 29.5 3.993 4.4 6.653 9.42 1.5 14.125-2.458 2.348-1.823 7.578-5.283 7.893-1.143-5.784-3.943-11.252-7.697-16.012-2.09-2.488-6.09-5.494-8.895-8.131-2.685-1.62-2.826-11.784-5.125-6.375-3.725 7.5.449 16.363 4.375 23 3.049 5.154 12 12.875 12 12.875s3.58 4.486 1.625 6.875c-2.154 3.683-3.125 12.5-3.125 12.5s-.012 10.094-3.875 2.5c-3.838-7.836-11.486-12.219-19.375-15.375-3.078-.78-5.648-8.553-7-7.125-2.8 7.413 1.413 14.834 6.125 20 4.339 4.757 9.063 9.015 15.5 11.625 2.642 1.071 6.043.709 5.969 4.705-.168 9.003-.222 18.15.955 27.106-3.03-6.896-8.839-12.145-15.674-14.936-5.218-2.13-10.91-3.292-14.375-8-3.647-3.323.83 9.87 2.5 11.625 3.408 3.58 6.96 6.825 11 9.5 4.956 3.282 11.947 3.526 16 7.875 2.485 2.666 2.914 6.688 4.125 10.125 1.546 4.389 3.57 9.292 4 13.375-5.943.018-7.242-6.931-12.625-8.5-4.893-1.844-10.86-1.331-16.25-2.25-3.101-.528-10.56-7.262-9.25-1.875 1.277 5.255 5.815 8.45 9.5 11.875 4.25 3.95 9.468 4.718 14.75 5.875 5.095 1.116 15.25 1.375 15.25 1.375s5.325 11.189 8.125 16.75c2.033 4.982-4.892-.412-7.125-1-7.542-4.09-16.693 1.473-24.375-1.25-4.769-1.69-5.72-2.735-2.5 2.125 3.128 5.991 9.711 8.09 16.5 9.25 7.479 1.277 14.865 1.19 22.625 1.375 4.44.61 11.473 14.575 10.875 17-6.944 1.462-12.754-2.922-20.125-1.625-6.274 1.104-18.25 1.375-18.25 1.375s2.995 4.36 4.5 5.75c5.21 4.811 12.924 4.26 19.635 4.5 6.528.234 19.365-3 19.365-3s6.185 5.765 9.598 8.525c-1.634-.601-3.133-.414-5.285-.644-5.306-.566-11.779 3.26-13.202 3.601-3.152 1.428-6.244 2.002-9.69 2.192-2.673.406-4.954.788-7.421 1.076-1.673-.28 1.648 3.276 2.273 4.023.763.975 1.927 2.527 3.477 2.852 5.813 1.218 11.138 1.121 16.82 1.016 2.405-.325 3.248-1.794 5.678-1.801 1.735-.058 3.682.294 5.252-.215 2.012-.47 3.544-1.63 4.883-2.86 1.425-1.693 3.946-1.873 5.756-.648 1.232 1.134 1.615 1.214 2.361 2.133 2.066 1.366 3.231 3.876 5.125 5.125 1.281 1.226-1.945 2.51-3.197 2.201-3.59-.022-7.197 0-10.541 1.492-2.566 1.688-5.364 2.922-7.887 4.682-3.228 1.291-6.544 2.246-10.064 1.959-5.045-.467.267 3.47 2.45 3.787 2.952 1.86 6.225 3.338 9.79 3.295 4.11.592 8.15-.79 12.25-.953 5.677-1.688 11.792-3.092 15.949-6.775 1.16-.919 3.098-1.147 4.25.062 4.471 3.085 8.596 3.493 13.563 2.75 1.715-1.008 1.44-4.106.5-5.625-1.215-2.026-3.27-3.168-4.813-4.836-.93-1.069-2.27-1.49-3.25-2.414-.297-2.28 1.465-4.282 2.438-6.187 1.589-4.94 1.038-10.256-.25-15.125-.384-2.483-1.799-4.565-2.063-7.063-.159-2.066-3.238-4.579-3.875-1.312-1.061 2.789-2.506 5.476-3.687 8.25-.632 3.18-2.563 9.312-2.563 9.312s2.421 6.118-1.062 5.25c-1.558.167-4.998-2.973-6.188-3.75-.99-.778-4.957-1.803-3.875-2.875.727-1.872 2.568-3.209 3.625-4.875 1.379-2.519 2.15-5.1 2.74-7.854.993-2.813 1.12-5.848 1.03-8.841.051-2.283-.617-4.055-.895-6.18-.448-1.944-1.154-3.96-1.75-6-.606-.652-.88-1.604-1.5-2.451-.106 1.799-.72 3.387-1.125 5.076-.625 1.377-1.347 3.192-2 4.5-.94 1.448-1.675 2.81-2.537 4.246-1.231 2.505-2.087 5.04-2.211 7.873-.324 2.77-.617 6.223-1.627 8.506-.167.283-.362.592-.55.895-3.18-2.6-7.106-4.685-9.602-7.913 5.034-6.11 9.57-14.956 8.543-23.814-.26-5.187-2.65-9.365-5.391-13.543-1.249 4.852-2.789 9.328-6.125 13.5-3.003 3.756-1.566 10.692-3.375 15.75-3.469-4.93-13.96-13.517-10.375-16.875 3.608-2.723 5.388-6.914 7.125-11.125.852-6.713 2.416-14.455.125-20.75-3.322-5.749-2.064-1.225-4.25 2.25-3.428 7.418-5.516 15.18-7.125 23.25.568 6.68-2.875.625-2.875.625l-6.5-14.625s3.623-4.78 5.25-8.25c2.549-5.437 7.594-10.403 6.75-16.875.987-3.06-1.733-16.592-3.5-8.5-3.31 3.334-4.937 8.334-8.125 12.125-3.118 3.707-2.164 14.028-3.75 13.375-4.002-4.238-6.273-14.969-6.273-14.969s-3.632-8.668 1.773-9.656c4.77-.872 7.062-6.941 11-9.5 4.267-3.164 6.614-8.634 7.625-13.75 1.727-2.27-.807-12.462-1.375-6.75-4.035 5.266-9.349 9.348-13.25 14.5-2.562 4.361-4.149 11.226-7.45 14.053-2.556-4.609-1.7-9.02-2.8-13.928.41-5.546-3.293-17.465 4-18 3.516-1.176 6.663-3.125 9.75-5.25 5.51-3.793 9.472-10.234 10.75-17.125.775-2.541 2.277-11.844-.625-7.375-5.39 4.283-11.287 9.111-14.875 15.25a110.078 110.078 0 0 0-6.75 11.875c-1.434-3.675.516-16.662 1.938-20.75 1.63-4.69 1.218-4.88 2.921-6.563 5.426-5.362 15.302-3.458 21.016-9.062 3.584-3.515 8.752-6.259 9.125-12.75.456-7.95-3.728.721-7.625-.375-7.81 2.48-13.804 9.165-17.625 16.125-2.792 4.654-2.487-2.006-1.375-4.625 2.15-4.43 5.595-9.324 6.875-13.5 7.54.143 14.301-3.574 19.875-8.25 6.164-1.623 9.758-7.994 10.625-13.625-4.295 3.958-10.452 4.116-15 8-1.983 1.436-11.32 9.235-9.016 5.059 1.039-3.116 2.549-5.243 3.89-8.131 1.838-2.023 3.958-4.102 5.48-6.366 5.005.183 10.815.262 16.437-1.138 5.822-1.45 11.467-6.291 12.127-11.98-2.473-.997-19.291 3.167-19.291 3.167s1.062-2.263 2.04-2.953c5.932-4.187 14.82 1.011 21.036-5.656 2.178-2.15 5.219-5.669 6.01-6.541-6.777-2.468-16.984.83-21.302 5.745 4.096-4.535 9.317-9.299 14.411-11.67 6.68 1.655 16.059 4.225 22.272-.085 6.281-4.867-2.666-4.794-6.541-3.713-7.75.432-11.006-.47-3.889-5.48 3.672-3.955 8.417-4.612 11.844-.53 5.254 5.695 14.118 3.383 21.27 2.499 4.848.313 8.037.534 2.064-3.383-4.417.244-8.966-7.004-12.106-8.846 7.074-1.545 15.85 1.819 22.213-2.719 10.307-7.35 4.343-9.007-3.78-5.16-6.763.63-12.792.738-18.274 4.418-5.164 4.566-1.962-5.684-.237-8.658 1.752-3.541 4.568-6.549 6.153-10.147zM324.75 451.75l.152.152zm96.75 85.75c-.393-.003.148.35 0 0zM572.364 299.107c4.769 1.412 9.1 3.386 12.707 7.247 4.599 3.212 2.967 13.163 7.778 17.236 3.501 2.965 9.623 5.102 12.021 6.629-4.484-7.18-2.81-17.112-7.332-24.358-5.466-8.76 7.78 1.332 10.238 4.059 6.167 6.84 8.69 17.152 7.473 26.598.803 6.128 7.637 7.696 11.985 12.433-1.855-5.088-3.345-10.699-4.686-15.373-1.477-5.15-3.896-17.48-.531-19.623 3.694 2.56 7.45 4.999 9.369 8.84 3.763 7.532 4.644 16.74 2.83 25.101-1.162 5.355.7 11.823 4.596 12.905 4.173-3.869.641-11.907 3.888-16.617 3.669-5.323-1.461-20.836 5.127-10.606 4.434 5.046 5.96 12.187 5.153 19.152-1.08 5.654-5.046 14.129-4.27 20.975 1.132 2.187 3.435 4.027 4.354 6.38 1.712 1.603 2.167 5.336 3.601 6.702 2.992 3.795.976-8.572 2.76-11.662 1.445-6.278 4.852-11.492 8.5-16.5.29-5.173 1.777-8.675 4.5-2.25 3.329 10.125-.663 20.848-5.625 29.5-3.993 4.4-6.653 9.42-1.5 14.125 2.458 2.348 1.823 7.578 5.283 7.893 1.143-5.784 3.943-11.252 7.697-16.012 2.09-2.488 6.09-5.494 8.895-8.131 2.685-1.62 2.826-11.784 5.125-6.375 3.724 7.5-.449 16.363-4.375 23-3.049 5.154-12 12.875-12 12.875s-3.58 4.486-1.625 6.875c2.154 3.683 3.125 12.5 3.125 12.5s.012 10.094 3.875 2.5c3.837-7.836 11.486-12.219 19.375-15.375 3.078-.78 5.648-8.553 7-7.125 2.8 7.413-1.414 14.834-6.125 20-4.339 4.757-9.063 9.015-15.5 11.625-2.642 1.071-6.043.709-5.969 4.705.168 9.003.222 18.15-.955 27.106 3.03-6.896 8.839-12.145 15.674-14.936 5.218-2.13 10.91-3.292 14.375-8 3.647-3.323-.83 9.87-2.5 11.625-3.408 3.58-6.96 6.825-11 9.5-4.956 3.282-11.948 3.526-16 7.875-2.485 2.666-2.914 6.688-4.125 10.125-1.546 4.389-3.57 9.292-4 13.375 5.943.018 7.241-6.931 12.625-8.5 4.893-1.844 10.86-1.331 16.25-2.25 3.101-.528 10.559-7.262 9.25-1.875-1.277 5.255-5.815 8.45-9.5 11.875-4.25 3.95-9.468 4.718-14.75 5.875-5.095 1.116-15.25 1.375-15.25 1.375s-5.325 11.189-8.125 16.75c-2.033 4.982 4.892-.412 7.125-1 7.541-4.09 16.693 1.473 24.375-1.25 4.769-1.69 5.72-2.735 2.5 2.125-3.128 5.991-9.712 8.09-16.5 9.25-7.479 1.277-14.865 1.19-22.625 1.375-4.44.61-11.473 14.575-10.875 17 6.944 1.462 12.754-2.922 20.125-1.625 6.274 1.104 18.25 1.375 18.25 1.375s-2.995 4.36-4.5 5.75c-5.21 4.811-12.925 4.26-19.635 4.5-6.528.234-19.365-3-19.365-3s-6.185 5.765-9.598 8.525c1.634-.601 3.133-.414 5.285-.644 5.306-.566 11.779 3.26 13.202 3.601 3.152 1.428 6.244 2.002 9.689 2.192 2.674.406 4.955.788 7.422 1.076 1.673-.28-1.649 3.276-2.274 4.023-.762.975-1.926 2.527-3.476 2.852-5.813 1.218-11.138 1.121-16.82 1.016-2.405-.325-3.249-1.794-5.678-1.801-1.735-.058-3.683.294-5.252-.215-2.012-.47-3.544-1.63-4.883-2.86-1.425-1.693-3.946-1.873-5.756-.648-1.232 1.134-1.615 1.214-2.361 2.133-2.066 1.366-3.232 3.876-5.125 5.125-1.281 1.226 1.945 2.51 3.197 2.201 3.59-.022 7.197 0 10.541 1.492 2.565 1.688 5.364 2.922 7.887 4.682 3.228 1.291 6.544 2.246 10.064 1.959 5.045-.467-.267 3.47-2.45 3.787-2.952 1.86-6.225 3.338-9.79 3.295-4.111.592-8.15-.79-12.25-.953-5.677-1.688-11.792-3.092-15.95-6.775-1.16-.919-3.097-1.147-4.25.062-4.47 3.085-8.595 3.493-13.562 2.75-1.715-1.008-1.44-4.106-.5-5.625 1.215-2.026 3.27-3.168 4.813-4.836.93-1.069 2.269-1.49 3.25-2.414.297-2.28-1.466-4.282-2.438-6.187-1.589-4.94-1.038-10.256.25-15.125.384-2.483 1.798-4.565 2.063-7.063.159-2.066 3.238-4.579 3.875-1.312 1.061 2.789 2.506 5.476 3.687 8.25.632 3.18 2.563 9.312 2.563 9.312s-2.421 6.118 1.062 5.25c1.558.167 4.998-2.973 6.188-3.75.99-.778 4.957-1.803 3.875-2.875-.727-1.872-2.568-3.209-3.625-4.875-1.379-2.519-2.15-5.1-2.74-7.854-.993-2.813-1.12-5.848-1.03-8.841-.051-2.283.617-4.055.895-6.18.448-1.944 1.154-3.96 1.75-6 .606-.652.88-1.604 1.5-2.451.106 1.799.72 3.387 1.125 5.076.625 1.377 1.347 3.192 2 4.5.94 1.448 1.675 2.81 2.537 4.246 1.231 2.505 2.087 5.04 2.21 7.873.325 2.77.618 6.223 1.628 8.506.167.283.362.592.55.895 3.18-2.6 7.105-4.685 9.602-7.913-5.034-6.11-9.57-14.956-8.543-23.814.26-5.187 2.65-9.365 5.39-13.543 1.25 4.852 2.79 9.328 6.126 13.5 3.003 3.756 1.565 10.692 3.375 15.75 3.469-4.93 13.96-13.517 10.375-16.875-3.608-2.723-5.388-6.914-7.125-11.125-.852-6.713-2.416-14.455-.125-20.75 3.322-5.749 2.064-1.225 4.25 2.25 3.428 7.418 5.516 15.18 7.125 23.25-.568 6.68 2.875.625 2.875.625l6.5-14.625s-3.623-4.78-5.25-8.25c-2.549-5.437-7.594-10.403-6.75-16.875-.987-3.06 1.733-16.592 3.5-8.5 3.31 3.334 4.937 8.334 8.125 12.125 3.118 3.707 2.164 14.028 3.75 13.375 4.002-4.238 6.273-14.969 6.273-14.969s3.632-8.668-1.773-9.656c-4.77-.871-7.062-6.941-11-9.5-4.267-3.164-6.614-8.634-7.625-13.75-1.727-2.27.807-12.462 1.375-6.75 4.035 5.266 9.349 9.348 13.25 14.5 2.562 4.361 4.149 11.226 7.45 14.053 2.556-4.609 1.7-9.02 2.8-13.928-.41-5.546 3.293-17.465-4-18-3.516-1.176-6.663-3.125-9.75-5.25-5.51-3.793-9.472-10.234-10.75-17.125-.775-2.541-2.277-11.844.625-7.375 5.39 4.283 11.287 9.111 14.875 15.25a110.078 110.078 0 0 1 6.75 11.875c1.434-3.675-.516-16.662-1.938-20.75-1.63-4.69-1.218-4.88-2.921-6.562-5.426-5.363-15.302-3.459-21.016-9.063-3.584-3.515-8.752-6.259-9.125-12.75-.456-7.95 3.728.721 7.625-.375 7.81 2.48 13.804 9.165 17.625 16.125 2.792 4.654 2.486-2.006 1.375-4.625-2.15-4.43-5.595-9.324-6.875-13.5-7.54.143-14.301-3.574-19.875-8.25-6.165-1.623-9.758-7.994-10.625-13.625 4.295 3.958 10.452 4.116 15 8 1.983 1.436 11.32 9.235 9.016 5.059-1.039-3.116-2.549-5.243-3.89-8.131-1.838-2.023-3.958-4.102-5.48-6.365-5.005.182-10.815.261-16.437-1.14-5.822-1.45-11.467-6.29-12.127-11.98 2.473-.996 19.291 3.168 19.291 3.168s-1.062-2.263-2.04-2.953c-5.932-4.187-14.82 1.011-21.036-5.656-2.178-2.15-5.219-5.669-6.01-6.541 6.776-2.468 16.984.83 21.301 5.745-4.095-4.535-9.316-9.299-14.41-11.67-6.68 1.655-16.059 4.225-22.272-.085-6.281-4.867 2.666-4.794 6.541-3.713 7.75.432 11.005-.47 3.889-5.48-3.672-3.955-8.417-4.612-11.844-.53-5.254 5.695-14.118 3.383-21.27 2.499-4.848.313-8.037.534-2.064-3.383 4.417.244 8.966-7.004 12.106-8.846-7.074-1.545-15.85 1.819-22.213-2.719-10.307-7.35-4.343-9.007 3.779-5.16 6.764.63 12.793.738 18.275 4.418 5.164 4.566 1.962-5.684.237-8.658-1.752-3.541-4.568-6.549-6.153-10.147zm138.56 152.643-.151.152zm-96.75 85.75c.394-.003-.148.35 0 0z"/></g></svg>